<?xml version="1.0" encoding="UTF-8"?><svg id="Layer_1" xmlns="http://www.w3.org/2000/svg" viewBox="0 0 3000 3000"><path d="M641.759,1494.077c0-459.654,372.624-832.286,832.286-832.286s832.277,372.632,832.277,832.286c0,151.86-40.672,294.217-111.715,416.776l50.727-23.755c60.222-117.935,94.18-251.512,94.18-393.022,0-477.986-387.484-865.478-865.47-865.478s-865.478,387.492-865.478,865.478c0,75.132,9.569,148.026,27.565,217.53,10.656-3.02,21.369-5.817,32.131-8.376-17.304-66.83-26.503-136.918-26.503-209.153Z" fill="#12495f"/><path d="M2216.35,1911.754c1.86-1.399,3.64-2.886,5.27-4.481l-5.27,4.481Z" fill="#12495f"/><path d="M1308.846,766.356l-5.554-.741-5.513,6.788,7.249-.115c-1.275,6.533-8.722,8.615-14.128,7.628-1.884-.165-6.204,3.727-5.184,5.266l2.147,3.258c.535.798-1.983,2.361-2.97,3.012l5.702,3.25c-3.925,1.942-8.039,2.279-11.289.79l-12.186-5.579,14.457-3.884c-2.51-4.896-5.669-.979-8.278-.091l-9.487,3.217-18.489,6.328c-6.435,2.197-13.025,3.16-19.962,3.884l-4.517,5.11c-2.724-2.23-4.501-3.859-6.221-4.295-2.09-.518-5.521,2.641-7.257,3.094l-22.282,5.809c-2.789.732-6.928.37-8.903-.65l-1.53-.93-2.246-4.229c-.428-.815,3.226-1.563,4.196-1.563h8.582c.65,0,.37-2.913-.321-2.855l-2.617.197-7.43-.296-16.514,3.653c1.317,2.115,4.715,3.67,6.155,2.929l5.488-2.814c.551-.296.979,2.156.502,2.682l-2.394,2.658,6.369.173.798.88-2.748,2.691c-.658.65-2.765-.535-4.287-1.127-5.595-2.172-9.216,6.27-16.152,2.255l7.364-4.665c-1.037-.617-2.172-1.316-2.551-1.02l-3.579,2.756.905-7.076-13.84,3.966c-2.789.798-7.076.798-10.104.477-.304,2.46-1.284,7.233-2.732,9.068-3.184,4.007-16.432,5.505-18.9.979-1.07-1.967-.469-6.328-.041-10.022l-16.243-1.144c-14.457-1.012-22.142,7.266-33.711.214-2.049-1.251-7.109-3.308-9.454-3.686l-12.466-2.049-14.227,1.761,8.837-8.352c15.379-11.355,31.3-21.69,49.205-27.935l21.681-7.562,29.86-10.993,4.772,4.97c.897.93-1.917,3.382-2.97,4.953l8.804-3.859c7.175-3.151,15.913-4.468,23.763-6.41l31.218-7.726,17.246-3.588,22.266-3.9,14.589,5.143c6.467,2.271,13.313,2.345,20.052.609,2.279-.584,6.566,2.403,8.64,3.456l20.316,10.285c3.291,1.662,8.5,7.175,10.878,9.693.897.954-1.456,5.447-2.765,5.274Z" fill="#12495f"/><path d="M1291.033,785.042c-1.197.631-2.275,4.56-1.103,5.237.937.541,4.503.619,4.807-.42l1.069-3.656c.303-1.037-3.816-1.666-4.773-1.162Z" fill="#12495f"/><path d="M1150.429,811.477l-7.171-.477c-.884-.059-1.038,3.043-.57,3.791,1.333,2.133,8.661-.365,7.742-3.314Z" fill="#12495f"/><rect x="1120.95" y="824.641" width="5.671" height="2.834" transform="translate(-264.92 696.587) rotate(-30.992)" fill="#12495f"/><path d="M2042.64,1094.844l-7.43-6.533-16.275-19.155-18.036-16.588c-6.533-5.998-12.104-11.709-15.42-20.612l-6.286-5.661,6.319-3.555c1.004-.568-.288-3.818-.263-5.258.403-20.768-9.249-22.373,2.872-24.175,2.666-.395.42-8.335-2.518-8.705l-.856,7.027c-1.662-.913-3.892-3.727-2.938-4.838l3.736-4.345-10.137-2.041-3.826-2.872c-.782-.724,1.267-3.415,1.859-2.946-2.222-3.604-7.381-6.772-10.376-7.99l-4.764,4.846c-4.443,4.517-4.32,10.631-.535,15.502l7.595,9.775c.066,5.093-4.402,11.026-7.973,13.93-4.879,3.95-12.943,2.617-18.39,3.464-4.855,6.311-11.717,7.15-20.48,6.41-7.348-.625-6.089,6.64-13.782,7.076.469,3.086,1.07,10.294-.189,13.601-5.019,13.223-2.115,18.193-5.678,25.944l-11.635,25.351c8.681-2.724,14.91-12.063,18.678-7.603.864,1.012,1.876,3.982,1.958,5.315l.444,7.2,10.014-4.781,3.925-2.378c.806-.485,2.164,1.95,1.72,2.781l-1.563,2.937c-.757,1.415,5.776,1.432,6.78.148.864-1.103.996-2.008,2.477-5.784l4.888,12.639,2.493-1.168.313-4.238c.346-4.632,4.583,7.027,10.557,6.846.773-3.127-11.306-8.36-6.418-14.745.354-.469,3.406.132,3.9.65l14.975,15.765,14.144,18.982c7.397,7.373,13.758,13.873,18.958,23.516l-8.352,6.862,4.295,7.792,8.878,11.964,4.772.617c.453.058.214.617-.502,2.287.288,3.291-1.029,4.229-2.929.798l-6.262,3.867c-1.382.856-6.541-2.444-7.266-4.196l-12.03-29.243-4.262-10.244c-1.061-2.559-1.497-4.262-1.078-8.179l-7.249-7.463.469-5.431-9.298,4.871,4.797,12.894c1.613,4.328,3.571,7.175,4.764,11.882l3.612,14.259c1.374,5.422.165,10.252-1.481,16.218l3.777,11.964-11.289,29.877-7.735,11.429-13.124,4.739-9.751-5.71-2.584,8.549-1.802,4.929c-.403,1.094,2.172,3.176,3.3,4.534l-4.929,21.056-6.27,5.686,7.249,10.976c3.3,1.596,8.993,4.081,11.281,7.858,5.924,9.75,10.977,20.924,12.655,31.045-4.262,2.065-5.431,3.036-7.792,4.649l-11.445,7.809c-.675.461-1.827,3.028-2.51,2.584l-2.51-1.621-6.451-17.008c-2.139-5.636-3.374-11.051-3.44-17.592-1.111-3.119-6.566-7.562-9.586-8.714l-3.267-1.251c-.395-.156.189-1.802.354-2.353l-7.2-14.671c-5.9-.74-13.93.42-17.641,5.735-2.617,3.736-9.092,10.59-13.445,4.698-3.011-4.09,1.572-13.412,6.171-16.045,1.119-.642.025-4.781-1.242-4.583-5.554.856-4.163,5.809-10.762,6.673l-20.299,20.62c6.467,3.127,13.47,6.5,15.189,12.63l1.391,4.994c1.094,3.9,17.255-12.095,29.062-5.225.905.527,3.867,3.151,3.036,3.711l-3.102,2.098c-7.249,4.896-12.861,12.087-16.383,19.838l18.275,19.443,10.837,15.403c1.094,1.555,3.645,6.303,2.485,7.66l-4.287,5.036c-6.928,8.129,6.624,7.447,7.159,14.803.132,1.827-2.074,5.192-2.625,7.084l-5.439,18.81-5.71,17.773-5.933,14.696-5.497,8.311c-2.016,3.053-7.381,5.965-10.367,8.45-6.731,5.603-14.037,9.265-22.702,6.846-.453,1.448-3.044,7.052-5.274,7.702l-13.371,3.867-11.281,11.158-2.279,3.407c-.428.642-2.748-1.078-2.855-1.646l.395-3.332-13.873.436c-3.439-1.481-5.398-1.827-8.475-1.399-3.209.444-2.814,5.892-4.098,7.512l-11.964,15.189,26.487,25.96c4.377,4.295,14.556,22.784,14.786,27.556.921,19.131.23,22.455-13.387,35.34l-7.99,7.553-8.697,13.313-7.85-2c1.185-.987,2.839-5.743,1.168-6.615-1.497-.79-3.752-1.967-3.554-2.855l.592-2.732c-6.533.963-13.577,1.308-19.065.362,1.234-11.289-5.562-10.968-5.225-12.556l.773-3.662-17.148-7.389c-3.341-1.44-7.471-2.789-9.331-1.572,4.262,10.721-4.871,22.348-.56,29.35l4.846,7.858,10.236,19.986,9.989,9.076,3.793-2.46c2.551,3.834,3.25,4.476,6.484,6.509,10.047,12.244,5.974,27.194,16.029,35.159,3.645,2.888-.699,2.937,2.789,9.915.37.732-.214,2.88-.757,3.407-.749.724-4.147,1.465-4.558.518l-1.382-3.168c-.272-.633-.765-2.345-1.341-2.139l-2.814.987-6.895-6.245c-2.213-3.522-3.596-3.596-6.747-6.007l-20.258-15.486-5.941-13.363c.913-1.374,4.024-5.159,2.74-5.867l-6.188-3.423,2.822-6.212c-8.664-4.427-19.197-15.091-18.316-20.027l2.427-13.618c3.349-6.772,6.262-15.839,2.707-24.495l-15.14-36.813c-.708-1.728-.88-6.023-2.485-6.155l-6.599-.527,3.999,5.834-4.139-.008-9.676,4.814-8.566-3.028-4.978-9.849c2.485-.699,5.365-5.521,3.917-8.681l-4.912-10.73c-4.484-9.792-15.56-13.972-15.494-25.137l-4.846-12.737-13.404-1.317c1.029,5.118,1.884,8.5.568,10.343-3.505,4.888-9.635,1.958-13.14,7.34-11.116-3.884-19.6,6.673-24.035,19.09l-12.647,4.739c-3.777,6.879-8.228,12.466-13.955,17.65l-7.99,7.233c-6.023,5.447-12.021,10.433-21.541,12.096-1.02.576-2.172,4.888-1.884,6.632,3.579,21.846.165,48.11-14.753,64.073l-1.259,7.397c-5.184,1.423-11.791,3.258-17.164,1.242-3.843-1.44-7.874-9.142-8.113-13.248-.313-5.291-2.057-9.298-4.057-14.144l-12.548-30.453c-5.546-13.453-10.656-26.989-13.396-41.248l-8.006-41.709c-3.39,2.123-4.608,4.04-6.393,6.517l-8.854,3.308c-5.974-4.32-11.034-11.223-15.675-17.419-2.732-3.653-3.637-6.887-2.608-12.721-20.933-5.908-19.624-24.948-32.024-21.402-7.241,2.074-14.803.683-21.558,1.201-14.786,1.152-27.252-.453-40.088-8.656-2.526-1.621-4.863-3.053-6.673-5.628l-3.851-3.974c-.041-2.732-1.061-4.986-3.258-6.698-3.102-2.419-8.195,2.452-19.789,2.74-5.266.123-20.2-8.467-26.248-19.09l-6.418-11.289c-2.847-5.003-5.949-11.906-10.014-13.939l-12.556,7.2c2.156,5.883,5.381,11.141,8.804,16.415,5.76,8.862,6.097,17.88,7.191,18.456l5.809,3.069,2.592,10.664c1.3,5.357,1.95,10.154,4.756,14.482l18.818-4.476,10.754-4.797,5.957-8.779,6.632-2.008,5.603,16.81,1.596,4.575c.263.765,2.658.963,3.423,1.275l10.302,4.229c4.122,1.695,9.002,8.508,11.594,12.82-1.884,8.5-5.233,16.037-10.121,23.714-6.558,10.31-25.154,11.923-28.091,18.925-1.975,4.698-2.896,8.121-6.245,10.392-6.221,4.221-13.412-.675-21.089,1.506l-22.068,15.148c-8.952,6.146-18.472,10.17-29.589,10.688l-9.43,4.32c-5.003,2.296-12.244,6.369-17.559,2.839-8.417-5.571-10.549-15.987-11.511-25.038l-1.687-15.93c-.56-5.266-4.501-9.536-7.776-14.054l-5.678-7.841c-.897-3.25-.938-9.973-2.83-12.31l-10.458-12.918-4.641-24.446c-1.621-8.524-9.306-14.161-12.696-28.091l-9.471-38.936c-.798-2.287-1.802-1.02-1.662,1.999-2.921,3.045-6.22,3.917-11.248,3.439-1.094,6.443-1.382,14.441,1.3,21.179,3.999,10.055,5.225,20.027,4.888,30.897-.156,5.324,4.073,7.356,6.739,10.927,6.204,8.311,7.142,19.978,8.286,29.91-8.023,9.734,8.187,9.709,12.416,28.223,5.891,25.795,19.287,25.738,23.796,35.069,4.114,8.516,8.796,15.593,14.473,22.405l-.683,6.286c5.398,3.736,9.224,6.986,13.881,11.972l41.717-7.496c5.933-1.061,11.799-1.16,17.756-.716,2.617,9.035.88,16.111-3.513,23.302l-21.377,35.052c-9.685,15.88-24.356,25.952-39.339,36.772l-15.699,14.556-15.486,16.333c-2.608,2.74-5.678,8.343-7.381,12.359-93.218-29.037-190.763-45.099-287.865-45.65-3.884-5.661-9.545-12.91-7.702-19.295l6.286-21.723c.699-2.411.42-5.373-.115-7.611.09-11.684-2.946-21.961-12.466-31.119l-15.765,5.003-8.434.642-7.628-5.422,3.744-6.978c-9.174-21.245-24.216-17.88-44.375-14.037l-17.139,3.267c-7.085,1.349-17.888-12.927-32.79-1.078-4.098,3.258-7.603.288-10.45-1.613-6.714-4.484-12.671-8.376-17.23-14.901l-8.533-12.194c-5.974-8.541-11.857-16.111-14.72-26.635l-6.509-23.895-8.582-18.801c-1.728-3.801-2.468-5.447-6.319-8.524l3.316-2.353c-3.62-2.946-3.201-5.867-2.485-10.754l1.942-13.256c-1.004-1.876-3.645-6.912-2.954-8.911l7.66-22.052,9.808-32.246,1.399-10.195,3.332-26.355c.469-3.686.239-7.167,3.555-9.635,6.706-4.995,10.071-11.939,15.107-18.02l14.342-17.32,11.832-13.001c8.566-9.413,18.555-14.91,31.234-17.518l9.018-4.715c4.476-2.337,7.019-11.454,10.647-14.408,3.431-2.798,4.567-4.032,7.331-7.257,4.122-4.805,16.95-.806,31.934-17.016,1.144-1.242.494-6.591,1.909-7.331l4.888-2.551,3.53-14.523-7.784-12.754,9.545-25.516c2.337-6.253,8.615-11.232,12.202-16.827l12.433-19.386c.016-6.467,6.13-12.351,13.313-11.067l12.49,11.141c2.666,2.378,4.106,5.167,7.002,6.838l13.272,7.636,11.47-13.634c3.374-4.015,6.755-11.371,8.673-16.884,2.526-7.233-.107-16.037.502-23.294l1.58-9.833c.214-1.358,2.756-4.155,3.991-3.587l5.283,2.444,9.249,3.448-1.44-5.093c-.132-.477,1.835-.304,2.238.033l4.205,3.513c.938.782,3.497-2.024,4.772-3.571,5.027,5.307,12.754,2.641,17.394.074l3.686-2.049c.675-.37-.016-2.46-.42-3.036-5.241,2.921-10.302,1.596-13.527-2.855-5.908.782-9.627-2.756-12.91-7.767l-4.081,2.691c-.856.568-3.316-1.275-3.324-2.296-.008-1.029,1.226-3.694,2.123-4.451l9.487-8.014c3.711-3.135,6.122-5.085,10.656-7.751l4.888-7.735c.617.913,2.748,3.637,2.921,2.921l.88-3.629c1.111-4.558,2.263-5.817,7.792-10.014l-10.861-1.687c-2.444,8.171-9.487,8.253-15.411,11.001l-12.252,5.686c-3.991,1.851-5.908,2.666-9.726.469-2.567-1.489-6.089-4.287-5.636-6.566.954-4.888,5.891-10.73,10.54-10.491,1.489-.922,5.571-3.834,6.55-5.62l7.142-13.034c7.735,1.711,10.606-8.113,19.484-.436l-1.711,3.415c-.214.428,1.308-.049,3.053-.263,1.374-.165,3.061.773,5.99,2.97l7.356-7.2-7.06-4.945,10.507-7.076c1.086-.732,4.18-1.769,4.147-2.896l-.09-3.834,25.187-10.771c9.504-4.073,20.76-4.238,29.893-10.894l5.34,5.645c-8.45,3.538-17.329,5.834-24.578,10.466-3.11,1.983-6.385,4.978-9.981,6.533-2.822,9.166-7.784,19.081-13.782,27.186l-2.329,15.033-4.822,11.98-5.151,12.992-6.081,15.798-6.772,3.703,10.721,1.555,4.97-4.83,2.082,3.686c.469.823,7.66.362,7.628-.066l-.28-3.316c4.517-.708,8.269-2.97,10.886-7.183l10.738-3.859c4.238,6.081,11.561,6.945,18.267,1.884l2.789-10.294c1.967.288,3.917.905,4.361-.239l1.827-4.723,2.946-9.479,11.223-9.043c1.16-.938,4.649-1.901,6.097-1.909,1.44-.008,3.711,2.485,3.587,3.974l-.461,5.645c-.074.946,3.785,1.794,4.262.971l6.739-11.478c2.444-4.155,4.386-7.01,8.327-9.759l-.79-4.896c-.156-1.004-3.119.864-3.917,1.53l-9.01,3.53c-6.871,2.691-18.151-2.691-19.633-10.154-.971-4.888.346-9.586,4.377-13.758l19.74-20.422,6.698-5.735c6.525,2.641,10.902-1.794,16.136-4.172,12.968-5.875,20.727-5.34,25.894-8.409,4.279-2.542,9.216-4.846,12.013-8.541,4.452-5.883,11.265-8.055,18.258-7.504l1.234-5.529,4.32,1.662c.716.272,1.884-1.061,1.679-1.769l-.971-3.341c2.255.165,5.34.066,7.134-.856,1.275-.65.634-3.826.337-6.146l11.018-4.361c3.958-1.572,7.66-.815,10.837,2.74l7.603-7.175,2.263-1.687c.453-.346,1.497,1.958,1.029,2.279l-3.193,2.222c-.609.535,3.719,2.131,4.789,1.325l4.345-3.25c3.25-.502,7.208-1.662,9.907-2.732,13.453,3.727,23.45-2.888,31.045,2.872,3.489,2.649,8.006,4.813,11.585,6.13l-1.687,6.624-7.521-1.456c.428,1.95,1.317,4.353,2.395,4.238l5.357-.576,3.481-.37c.51-.058-.379,1.703-.798,1.991l-2.049,1.391c16.703,5.743,24.701,16.547,32.946,30.774,1.539,2.666,2.205,3.102,1.563,7.241l5.25,7.883,3.694-2.148c.691-.395,2.781,1.292,3.925,1.843,4.295-4.295-1.448-10.162-.115-10.96l2.32-1.391c.872-.527,3.522-2.361,2.888-3.16l-3.3-4.131c6.681-5.439,11.832.897,20.595-.601l-5.052,7.874c2.394,6.591,11.701,3.95,15.535,1.893.79-.379,4.583.601,4.452-.214l-.774-4.863,9.487,1.794-1.053-4.682c-.165-.741,2.641-.806,2.937-.115l1.333,3.069,3.999-1.547,8.278-1.193c1.744-.255.675,4.978-1.423,6.805,4.805,4.32,10.705,1.012,16.004-3.407,2.501-2.082,9.602.535,12.63,2.271l10.688-2.798c.782-.485.65-4.262-.395-4.567l-3.637-1.07c-2.567-5.2-5.694-8.409-10.055-10.532-3.974-4.616-8.936-7.652-14.243-9.668l-8.977-3.415c-1.975-.749-4.188-1.67-4.937-2.896-.74-1.218.601-5.126,1.917-5.422l6.903-1.547c5.118-8.097,11.083-15.897,19.69-20.266,4.303-2.189,6.138-5.258,9.076-9.331,2.271-3.151,10.902-4.081,14.523-5.653,5.274-2.296,9.932-4.369,15.329-4.312l11.083.132,21.369.609c-8.204,8.557-27.968,9.084-36.328,14.63l-19.295,12.795c-7.06,4.682-12.392,10.911-11.618,19.542-2.296-.979-4.188-1.86-4.781-1.086-6.764,8.788,13.19,18.76,13.239,17.97l-.263,3.991,13.914,2.032c1.061.148,2.987,3.341,3.604,4.369l17.592,10.491c.115,1.539.864,6.303,1.893,5.76l4.287-2.263c.815-.428-1.366-2.674-1.777-3.653l-4.509-10.738-3.127-8.952c7.702-4.205,13.108-8.549,16.679-15.675l8.096-16.168,7.973,8.854c5.801,4.879,9.742,11.322,5.48,18.662-1.654-.658-3.16-1.366-3.217-.675l-.28,3.349c-.699,8.302-.527,16.572.946,24.915l-3.884,14.646-4.781,8.845c9.388-6.476,15.272-17.304,15.379-27.836.066-6.64-2.156-13.371,1.983-19.271l9.89-14.103,7.488-.222-2.913-4.682c-.494-.79.337-2.715,1.16-5.554.477-.461,4.452,1.613,5.496,3.003.872,1.16.288,4.18-.066,5.883l4.657-1.621c1.004-.346,3.349,1.605,4.328,2.148l11.215,6.204c.082.197,2.041-2.148,1.514-2.666l-2.37-2.353-14.021-15.658,16.094-3.694c.922-.214,3.958,1.481,4.493.782l2.189-2.863,5.472-9.339c8.45-7.932,20.241-10.944,30.576-16.201l9.133-4.657c6.788-3.456,13.832-8.162,17.806-14.334l-10.45-1.95-11.116-2.436c-3.785-.831-10.285-1.193-12.688-3.859l-6.492-7.175,5.752-9.035c.148-2.008,3.036-7.949,4.953-6.599l16.884,11.865c4.386,3.077,12.104,5.143,10.351,12.063,1.991-.428,5.25-.025,6.13,1.242.757,1.086.897,3.645.913,6.072,6.517-1.284,12.746-.37,17.304,5.702.963.354,3.036.494,3.258-.321l1.275-4.657,6.673,4.188c7.084,4.452,17.213,15.165,21.122,23.961l-9.043,8.73c5.118,4.814,10.705,7.965,14.646,4.476-.667-1.876-1.358-5.027-.247-4.962l4.419.255c1.662.099,4.805-.716,6.369-.263l13.675,3.925,4.83-4.007c-1.423,1.177,19.336-2.156,30.518-1.514l8.179,11.248c.436.601,3.135,1.498,2.946,2.189l-1.103,3.991,22.595,5.965-5.332-6.484c.37-.946,2.946-4.575,4.534-5.834,1.366-1.086,5.908.354,8.162,1.061l2.263-3.546,9.01,3.867,2.83,1.218c.453.189.979-2.361.938-2.542l-5.167-3.711c-1.119-.798.848-4.896,1.851-6.681l-10.4-7.356,12.169-2.106-6.344-.864,7.85-10.014,6.295,8.747c1.16,1.613,5.743,1.876,7.891,1.835,2.452-.049,7.726,3.522,10.014,2.781l12.161-3.941,10.269,4.04c16.901,15.395,22.471-7.282,43.396-3.62l12.754,2.238c6.171,1.078,12.77-5.406,18.11-6.328l11.709-2.032-9.907-4.781,8.928-9.874c2.477-2.74,10.573-2.477,14.729-2.575l37.644-.897c10.047-.23,17.37.214,25.944,5.019,8.344,4.682,16.654,8.903,21.591,16.44-12.466.765-29.169-3.637-25.614-.461l1.744,1.555c.469.42,3.069.65,2.995,1.284l-.362,3.143c7.298,2.534,13.239,7.101,19.624,11.775l11.956,8.771c3.711,9.561,12.647,3.3,10.17,9.627l-10.532-3.16c-6.574,5.167-4.089,10.614-2.189,16.58l6.015,18.917c.486,1.53.527,5.776-.921,6.196-6.064,1.744-9.578-1.679-11.997.288-1.177.946-2.255,3.892-2.97,6.204l-5.34,5.488c-.461.469-3.587,1.127-3.118,1.58l2.69,2.625c1.382,1.349,2.033,5.332,2.526,7.274l6.657,9.421,16.407,13.297,8.722,13.322c-1.942,6.097-.305,8.837,2.682,14.317,4.172,7.636,1.909,24.314,12.351,40.063.798,4.517-2.748,11.544-5.636,16.333Z" fill="#12495f"/><path d="M1070.622,878.252l-9.15,7.595c-3.637-2.707-4.476-2.863-8.812-2.041-5.455,1.045-11.306-2.674-15.815-4.888l-12.063-5.908,4.196-9.964,7.899-7.669,2.065,1.942,6.286-8.755c1.53-2.131,5.513-4.114,8.821-1.868,4.057,2.756,6.336,8.467,9.125,13.165l11.594,8.434c4.122,3.003-1.909,8.097-4.147,9.956Z" fill="#12495f"/><path d="M1937.096,856.719c-4.394,5.151-10.063,8.771-17.551,7.381-2.831-.527-6.056-4.18-5.776-6.986,6.443-6.278,16.407-7.191,23.327-.395Z" fill="#12495f"/><path d="M1775.576,877.182c-3.834,2.831-5.57,5.324-7.66,10.442-7.751.913-11.882-6.69-18.941,3.102l-.148-5.974c-7.595-.263-13.758-1.168-20.233-4.122,2.312-4.69,4.822-6.155,7.932-8.286,6.838-4.674,10.376-2.633,17.263-1.613l13.848,2.041c2.954.436,5.71,1.934,7.94,4.41Z" fill="#12495f"/><path d="M1500.408,929.357l-3.061-2.427c-.782-.617.815-4.402,1.925-5.085l1.136,7.512Z" fill="#12495f"/><path d="M1358.701,953.886l-9.331,5.472-.42-6.55c-.074-1.144-2.83-2.279-4.484-3.489.749-1.539,7.159-4.509,8.566-2.707l5.669,7.274Z" fill="#12495f"/><path d="M2065.86,1031.437l-3.752-.568c-.996-.148-1.078-3.546-.099-3.39l3.826.601c.765.123.773,3.472.025,3.357Z" fill="#12495f"/><path d="M2104.648,1044.273l-8.854-11.083c5.941-1.843,10.878,4.558,8.854,11.083Z" fill="#12495f"/><path d="M2016.861,1231.951c-.527.79,2.773,1.892,3.184,2.74l4.945,10.318c.831,5.085,2.032,8.442,6.327,11.89l.559,20.529c1.012,2.329,2.106,5.562,2.74,8.088l2.46,9.693c2.394,9.438.584,14.021-8.492,22.076l-4.863,5.2-.444-5.06c-.09-1.053-2.608-2.477-3.777-1.843-1.588.856.749,4.781,2.748,7.2-.658,1.679-5.307,1.251-7.48-.411l-2.115,1.572c-.346.255-1.506,1.267-1.127,1.407l4.608,1.679-5.752,6.278c-1.728,5.661-7.521,9.224-12.721,6.936l1.341-3.135c1.391-3.258-6.986.428-11.026,10.096l3.637,4.624-4.846-.864c-1.325-.239-1.991-3.398-2.74-5.834l-5.422,9.133.058-6.846.296-4.896c.074-1.316-3.859-.74-5.636-.123-.181.477-1.818-3.917-.765-4.41l5.933-2.789c-2.205-1.728-6.13-4.106-9.092-5.365l.14,5.554c.025,1.094-1.588,2.09-3.653,3.629l7.224,17.296,3.192,6.426c-7.66,4.377,5.299,11.964-4.344,21.558-3.448-5.365-5.595-10.812-6.048-17.559l-5.62-9.339c-2.197-3.653-3.958-7.48-5.06-11.454l-6.879-1.786,4.41-1.218c0-.008.008-.025.033-.049.016-.008.033-.025.049-.049.033-.041.074-.082.132-.132.025-.025.058-.058.091-.09.066-.066.14-.132.222-.214.041-.049.09-.099.148-.148l.148-.148c.107-.107.214-.214.337-.329.058-.066.124-.124.189-.189.189-.189.403-.395.625-.617.074-.082.156-.156.23-.23.708-.708,1.539-1.555,2.436-2.51.197-.206.395-.42.601-.642.214-.222.419-.453.625-.683.214-.23.428-.461.634-.699.749-.831,1.506-1.712,2.246-2.617.214-.263.42-.527.634-.79.436-.535.856-1.086,1.259-1.646.189-.247.37-.502.551-.757.214-.304.419-.609.625-.913.255-.37.494-.741.724-1.111v-.008c.165-.263.329-.535.477-.806.115-.189.222-.387.321-.576.082-.14.156-.28.23-.42.107-.197.206-.395.296-.593.132-.263.247-.527.362-.782.107-.263.206-.518.304-.774.091-.247.173-.502.247-.749.239-.806-.592-4.83.197-4.575l4.188,1.358.642-3.801c.165-.979,3.283-.905,4.69-.683l5.365-4.32c3.291-.387,4.97-.79,8.385-2.016l7.734,4.287-3.415-5.472c-.88-1.407,2.082-4.772,3.407-6.007l3.151-9.224,10.269-7.15c.354-.255,1.456-1.967,1.637-2.386.165-.387-.066-.938-.502-.905l-3.415.255,3.135-12.581c.658-2.658.296-8.302.189-10.326l-9.471-18.876-2.962-4.657c-.617-.963.642-2.872,1.078-4.435l1.744-7.973c-3.637-11.273-6.722-24.619,1.448-29.934,2.798,2.468,8.105,4.155,12.606,2.756,1.415.593,5.488,2.551,6.212,1.341l3.094-5.143c.716-1.185,4.122-1.136,6.978-1.498l-3.135-4.888,3.62-5.933,13.585-20.069c.058,11.026-11.24,30.551-11.133,30.938l1.925,7.208-6.146,6.657c-3.76,4.081-5.636,9.018-8.368,13.823l-5.315,9.372-2.098,3.135Z" fill="#12495f"/><rect x="1986.579" y="1357.508" width="4.438" height="3.914" transform="translate(-390.6424 1735.9321) rotate(-43.3456)" fill="#12495f"/><path d="M1968.503,1408.298l-6.673,14.729-3.867-2.485c2.699-2.189,4.081-3.694,4.863-6.295l3.332-11.19c.362-1.21-.889-4.657-.058-5.571l4.879-5.357c1.349,5.266-.049,10.82-2.477,16.168Z" fill="#12495f"/><path d="M1911.358,1479.489l2.888,5.933-12.169-4.904,2.699-5.496c.889-1.835-1.802-5.357-4.188-6.945l-.774-8.245,7.34-18.859,8.566-.14-.617,10.187c3.374,6.755,2.098,13.033-2.501,18.941l-1.242,9.528Z" fill="#12495f"/><path d="M1938.339,1441.005l-7.792,5.315c.395-3.127,2.592-6.533,7.792-5.315Z" fill="#12495f"/><path d="M1818.799,1518.91l-6.879,10.491c-2.666,4.065-17.238-2.312-18.152-8.541-.329-2.255,1.794-5.159,3.744-6.303l8.969-5.258c.93-.543,3.415-1.572,4.419-1.424,1.259.189,3.234,1.531,4.641,2.567l3.917,2.872c1.086.806.082,4.451-.658,5.595Z" fill="#12495f"/><path d="M1970.421,1602.213l-2.37-3.867c-.37-.609-1.448.132-2.106.65l-8.245,6.476.453-8.236,7.307-1.02c-6.13-2.97-9.709-6.402-12.104-11.783-5.949,1.835-13.363-2.756-16.646-8.664-.913.058-3.497,1.061-2.987,1.654l2.419,2.831,1.489,1.753c.305.354.42,2.164.025,1.901l-2.715-1.851c-1.44-.971-4.764-1.975-6.879-1.613,1.522,3.332,4.279,4.912,7.578,7.035.979,1.275-2.765,4.238-4.888,4.09-4.904-.337-10.549-6.895-9.158-13.922l-.666-8.483-4.098-2.148c-1.358-.708-.897-4.904-1.374-6.36l-2.995-9.199-4.328-1.004c-1.234-.28.115-4.698.905-5.752l7.331-9.652-3.217-22.011c-.247-1.711,4.493-3.143,6.311-2.666,2.246.592,4.27,1.893,6.673,3.571,2.041-.362,7.85.527,8.664,2.789l-1.333,18.234c-1.991,2.09-2.567,3.744-2.921,6.525l-1.432,11.075-1.103,3.834c-.296,1.037,2.148,3.834,3.135,3.398l4.847-2.106,3.719,2.929c.823.65,3.472.165,4.04.222l1.21,6.797c.23,1.292,4.781-.214,5.48-.543l-.28,7.916,6.138-2.872c-.041.206-.88,3.974-1.481,6.706,9.824,3.283,20.242,12.186,15.601,23.368Z" fill="#12495f"/><path d="M1293.492,1578.376c-1.522,2.921-5.768,4.682-9.01.181l9.01-.181Z" fill="#12495f"/><path d="M1654.341,1592.726c4.83,5.077,4.048,13.749-2.205,17.863l-1.473-17.699c-.206-2.493,6.015-6.196,8.442-4.262l-4.764,4.098Z" fill="#12495f"/><path d="M1950.377,1604.508c-3.234,1.547-6.048,3.596-9.142,6.212-.88.848-5.019-2.699-4.674-4.484.346-1.785,2.37-4.805,3.604-6.533-1.242-3.604-1.925-8.549-.247-11.478,2.946.148,5.25.222,5.998,1.267,1.292,1.794-6.056,9.635-2.197,8.936l7.085-1.292c.37.09.049,6.031-.428,7.372Z" fill="#12495f"/><path d="M1908.742,1691.81c.527,1.292.971,5.028.609,6.352-.428,1.596-3.81,2.987-5.299,4.04l-11.371,19.279-7.01,4.632c3.637,5.036,2.979,10.088-1.3,14.646l-6.402,6.821-9.759,5.192c-3.143-1.259-8.228-7.274-10.664-11.536-3.522-1.465-9.643-.321-13.511,1.901l-4.106-3.25-12.112-.543,2.419-3.522c.362-.527-1.333-1.892-1.744-2.501l-16.275-24.002c-2.139-3.143-.568-11.914.255-15.913,16.259-5.529,31.769-11.281,43.741-23.738l13.906-14.465-.527-3.555c-.148-1.029,3.867-1.012,5.028-1.004l3.678-7.142,8.138-11.536-4.147-3.727c-.847-.757,3.571-2.312,4.402-3.184l15.198-15.955c-1.292-4.698-1.555-9.627,3.094-11.824,2.222,2.263,5.011,6.624,5.25,9.199.304,3.258-2.32,7.759-4.674,10.285l-10.294,11.083c-2.987,3.217.058,12.046,3.349,14.079,3.374,2.09,4.435,3.908,7.027,6.229l12.918,11.585c-3.81,2.666-11.297,5.924-12.482,9.454l-3.546,10.631,3.431-.757c.634-.14,2.419,1.086,1.975,1.563l-2.592,2.863,3.398,8.319Z" fill="#12495f"/><path d="M1976.435,1643.041c-1.572,2.748-8.146,2.962-6.04,10.104l-12.293-3.201c-3.3-4.057-4.303-6.624-4.065-10.902-3.11-2.938-8.821-6.953-12.713-9.191l-2.543,5.332c-.354.757-2.263-1.728-2.905-2.312l-2.049-1.843c-.453-.403.329-2.773.889-2.551l4.221,1.662.551-8.623,3.818,3.53c2.353,2.172,2.32-5.99,5.077-10.121.749-1.119,3.843,1.728,4.591,2.592.905-.551,3.011-2.287,3.769-1.785l4.007,2.641,10.878-6.788,3.193-1.991c.749-.469,3.373,1.547,2.814,2.23l-2.872,3.505c2.559,7.817,6.566,19.172,1.67,27.713Z" fill="#12495f"/><rect x="847.983" y="1611.797" width="3.267" height="6.035" transform="translate(-810.584 857.708) rotate(-37.735)" fill="#12495f"/><path d="M1553.373,1657.07c-3.818,9.281-12.128,13.593-21.089,11.026-2.23-5.694-2.979-9.216-3.053-13.955l-.189-12.474.634-8.812,4.369-3.439,9.833,1.292c7.702,5.826,14.161,20.71,9.495,26.363Z" fill="#12495f"/><path d="M1660.57,1637.372l-3.941,7.463-1.218-5.398c-.255-1.144,3.209-2.082,5.159-2.065Z" fill="#12495f"/><path d="M1781.171,1741.681l-.971,13.33c-.247,3.448-5.505,7.916-9.092,11.487-13.198-7.447-27.063-15.214-36.138-27.811l-24.611-34.188c.008-1.21.378-3.143-.271-3.736l-3.332-3.061c-3.127-2.872-6.369-7.554-10.08-10.104l-10.145-6.986c-2.97-2.041-5.101-9.825-7.093-12.844l-8.261-12.499,10.113,4.855c9.569,2.526,17.485,6.854,25.154,13.305l17.213,14.506,8.821,4.641c10.944,2.427,24.907,10.491,23.903,13.972l-.708,2.444c-.115.411,1.07,1.415,1.341,1.078l2.222-2.724c6.797,4.896,6.105,12.828,10.565,15.173,2.921,1.53,8.368,4.147,7.874,6.591l-1.555,7.71c-.305,1.506,2.814,3.357,5.052,4.863Z" fill="#12495f"/><path d="M1992.242,1711.105l3.925,2.436c-2.337,2.32-2.83,2.74-4.739,6.311l-9.216,5.233-3.481-7.076c7.628-9.273,2.444-20.817,12.556-26.758l.247-11.635c.016-.642-1.391-2.682-1.703-3.242-.469-.831,2.559-2.666,2.97-1.736l1.448,3.291c.263.584,1.901.025,3.859-.411,3.086,11.445,3.316,26.067-5.867,33.588Z" fill="#12495f"/><path d="M1977.135,1688.733c-7.29,4.032-9.742,12.77-20.744,13.461l-18.135,1.144-16.234,1.44,2.962,7.809c.304.815,3.225,1.958,3.884,1.275l3.538-3.703c.247.148,2.83,2.715,3.826,3.736l16.004-4.772c.979,7.636-4.97,3.818-6.862,4.739-5.274,2.567-6.64,11.462-3.744,16.259.518.864,3.637,2.123,3.382,3.102l-1.284,4.855c8.088,4.896,1.695,10.573,6.673,17.403l-8.121,2.724-14.622-14.72c-3.02,8.162-4.501,14.745-5.406,20.686l-8.45-2.09c-.823-.206-2.246-2.106-1.588-2.427l3.472-1.703-1.785-8.837c-3.069-5.085-4.081-9.158-2.559-15.625l3.102-13.214-2.189-2.765c-1.712-2.156,11.355-10.112,2.156-17.6l13.519-6.871c7.027-3.571,13.963-1.152,20.571-7.142l14.622,1.267,12.005.271c.667.016,2.501,1.02,2.008,1.3Z" fill="#12495f"/><path d="M1711.371,1710.751l-2.798,7.068c-.123.304-.354.502-.889.592l-11.413-14.293-.091-10.475c2.46,1.967,7.595,5.62,9.216,8.072l5.974,9.035Z" fill="#12495f"/><path d="M2184.939,1800.76l-3.554.016c-1.851.008-5.381-1.325-7.118-2.197-12.268-.675-23.763-9.347-30.617-21.27-4.328-1.86-14.013-.099-16.95,3.941l-6.254,8.599-12.252-1.81-5.62-.428-19.616-2.633-6.525-12.861,5.875-2.296c3.538-1.382.518-13.906-3.16-16.926l-9.759-7.981-14.523,1.967-.518,4.484c-.132,1.144-2.526,1.711-4.599,1.925l1.654-5.834-8.911.551,7.356,9.981c-8.335,1.061-11.454-1.144-13.067-7.233-.255-.609-.691-1.892-.255-2.073l3.373-1.448,4.254-1.81c1.07-.461-1.712-3.604-2.732-4.163-1.012-.551-2.592.946-3.612,2.032-.716-.741-2.37-2.699-1.917-3.3l3.423-4.55-6.344-5.595-1.588-3.423c-.461-.996-3.448-.642-4.888-.93l-3.11-.625c-.839-.165,1.654-2.271,3.192-3.456l-10.763-6.969-3.694-.058c-.576-.008.304-2.584.864-2.436l3.908,1.012-2.608-5.266c-.667-1.349,1.16-5.2,2.09-5.965,5.875,4.6,10.178,4.46,16.341,5.134l13.807,1.514,9.742,4.369-.42,9.421-1.382,5.052c-.576,2.098,6.188,6.764,18.727-6.871.543-.584,4.386-.963,4.567-1.753l1.169-5.134c10.03,2.255,18.316,6.451,27.811,10.096l29.992,11.503,7.035,5.274c4.509,1.917,9.882,5.102,12.096,8.895-.601,1.761-1.934,5.793-.798,6.484l6.492,3.933-2.329,4.789,3.892,6.525c4.402,7.364,10.45,13.988,16.317,20.488l6.541,7.241c.091.025-.568,2.057-1.037,2.065Z" fill="#12495f"/><path d="M2174.25,1719.572l-6.204-.058c-1.341-.008-2.427-1.794-1.925-5.151l8.129,5.208Z" fill="#12495f"/><polygon points="1719.723 1729.018 1714.177 1729.281 1708.236 1719.342 1708.927 1718.453 1712.712 1717.4 1719.723 1729.018" fill="#12495f"/><path d="M1780.423,1722.888c-.362.444-4.18,2.32-4.246,1.423l-.543-7.233,4.789,5.809Z" fill="#12495f"/><path d="M1975.061,1723.316l-2.098,3.991c-2.098-.889-3.184-1.465-2.551-1.769l4.649-2.222Z" fill="#12495f"/><path d="M2019.823,1725.406l-6.772,9.068c-12.425-2.814-23.459,5.694-34.073.757,4.221-3.086,7.43-4.394,11.149-5.842l16.275-6.352c3.077-1.193,9.997.535,13.42,2.37Z" fill="#12495f"/><path d="M2207.599,1745.491l-9.331,8.689c-7.751,7.216-20.274,5.916-29.021.214,2.468-2.361,5.628-3.505,8.598-3.941l8.105-1.201,2.098-4.558c.477-1.045,3.332-.559,4.493-.732,8.401-5.356-1.802-10.968-.839-17.057,3.653,6.171,12.91,3.151,14.054,9.076l1.843,9.512Z" fill="#12495f"/><path d="M1786.635,1732.293l-2.106,6.936c-1.078-2.361-.625-5.332,2.106-6.936Z" fill="#12495f"/><rect x="1804.676" y="1732.163" width="3.805" height="4.751" transform="translate(-487.5398 2739.2153) rotate(-67.4849)" fill="#12495f"/><path d="M2161.102,1755.538l-.93-5.324c2.83,1.654,4.764,2.921,5.842,4.295.741.946-4.707,2.197-4.912,1.029Z" fill="#12495f"/><path d="M2229.347,1756.788c.148.691-3.752,2.032-5.192,1.72-1.415-.304-2.518-3.826-2.115-5.291l7.307,3.571Z" fill="#12495f"/><path d="M1779.929,1764.992c.173.782-1.341,1.967-2.139,2.041-.79.082-2.863-1.736-2.172-2.123l3.818-2.106.494,2.189Z" fill="#12495f"/><path d="M2254.903,1773.121c-5.052,3.061-10.606,6.566-13.601,10.244l-7.43-4.6c-1.736-1.086-2.378-5.159-1.835-6.731l1.07-3.077c.255-.757-2.411-.823-3.398-.815-.782.008-.189,1.843.444,3.711l-7.661,4.649,1.407-9.158,8.59-1.251c16.234-2.378,26.808,4.361,22.414,7.027Z" fill="#12495f"/><path d="M1960.259,1779.803c-.378.666-.716,1.308-.765,1.391q-.008.008-.008,0l-11.783.058c-12.729.066-18.555,6.673-31.424,6.887l-22.282.37-21.476,3.67-14.358-2.872-13.527-2.954-21.912-1.72-33.941-4.369c-5.291-.683-9.545-2.888-13.725-5.949,4.929-2.164,8.138-1.753,11.478.041.42.008,2.181-3.16,1.374-3.777l-4.616-3.522c2.296-1.629,5.661-1.646,8.952,1.456,1.958,1.843,2.699,4.295,2.123,8.278l11.832-4.781c4.641,1.662,11.914,2.699,14.967-.378l2.707-2.732c.576-.576,1.86.683,2.946,1.382,4.155-.461,12.038-2.641,15.732-1.284l16.868,6.171c2.098,4.526,3.81,5.686,8.656,6.854l8.335,2.008,19.106-1.325,19.666-.51,21.714-3.513c6.418-1.045,8.442-5.348,20.373-3.744l2.987,4.863Z" fill="#12495f"/><path d="M2020.835,1775.466l-8.812,4.723c-1.177.625-2.929,1.16-3.95,1.267-1.284.14-3.234-3.999-2.016-4.394,2.979-.757,9.018-2.222,11.536-3.513l2.748-1.407c.56-.288.922,2.995.494,3.324Z" fill="#12495f"/><path d="M1982.22,1775.845l-6.114,4.665c-1.259.963-1.243,3.9-1.465,6.023-13.215,2.946-25.837,19.83-35.209,12.762,5.628-2.468,8.944-4.114,11.733-8.681,2.88-4.731,9.849-1.654,9.66-8.755l.609-1.333,4.18-4.41c.197.946.444,2.139.634,3.053,5.11-4.221,9.948-4.813,15.971-3.324Z" fill="#12495f"/><path d="M1908.141,1798.283c-.502.444-3.579,2.584-5.134,3.448-1.432.79-4.46-2.518-5.176-3.999l-1.349-2.789c-.271-.56,1.44-2.287,2-1.975l9.66,5.315Z" fill="#12495f"/><path d="M2107.857,1942.631c-97.233,25.31-197.255,34.641-295.994,26.832l.107-5.842-.905-9.339c-.757-7.842.848-13.066,3.867-19.764,9.611-21.303,26.594-33.382,50.316-35.612,7.578-.708,15.165-3.587,22.274-6.393,9.57-3.793,19.378-8.854,24.224-18.522,2.468-4.912,5.554-11.026,10.368-12.721l3.135,3.283c.469.494,1.489-2.946,1.777-3.563,11.33-3.703,11.141-10.878,22.299-18.637,8.327-5.793,19.073-8.31,27.277-.584,4.056,3.818,16.703,2.205,15.173-2.773l-1.275-4.147c-.321-1.012,2.222-2.296,3.259-3.086,1.135-4.073,3.875-7.693,8.821-9.471l.206-7.784,5.11,1.646c3.407,1.102,5.406-9.109,18.604-7.364l1.037-2.756c.165-.436,1.646-.592,1.818-.156l1.53,3.95,4.575-6.204c.609,1.004,1.835,4.098,2.164,5.505l.913,3.875c.173.724,2.765.675,3.02-.025l1.547-4.254,8.985,1.777,10.796,2.131c5.784,10.549-10.006,11.306-4.081,22.315-2.559,3.151-5.398,7.628-6.78,11.092,15.955,5.694,21.566,19.221,34.715,22.973,2.839-3.579,4.962-7.842,6.426-11.799l6.723-18.209,1.72-13.099c.88-6.722.864-14.35,3.727-19.896l5.793-11.207,10.137,11.199-3.291,2.682.304,9.775,5.743,12.186c3.571,7.57,8.146,12.087,8.163,21.171.008,4.427,2.444,11.692.93,15.93-5.809,16.3,14.276,16.144,15.132,46.234.173,6.023,1.325,10.902,2.732,15.008-13.807,5.126-28.009,9.709-43.116,13.642Z" fill="#12495f"/><path d="M2199.799,1804.339l-5.455,2.97,2.378-5.069c.304-.65,2.024-1.284,2.649-1.555.625-.263,1.012,3.332.428,3.653Z" fill="#12495f"/><path d="M1975.407,980.408l-1.859-5.651,3.278.954c.615.433,2.321,2.324,1.686,2.726l-3.105,1.97Z" fill="#12495f"/><path d="M2048.276,1078.51c-10.442-15.749-8.179-32.427-12.351-40.063-2.987-5.48-4.624-8.22-2.682-14.317l-8.722-13.322-16.407-13.297-6.657-9.421c-.494-1.942-1.144-5.924-2.526-7.274l-2.69-2.625c-.469-.453,2.658-1.111,3.118-1.58l5.34-5.488c.716-2.312,1.794-5.258,2.97-6.204,2.419-1.967,5.933,1.456,11.997-.288,1.448-.42,1.407-4.665.921-6.196l-6.015-18.917c-1.901-5.965-4.386-11.413,2.189-16.58l10.532,3.16c2.477-6.328-6.459-.066-10.17-9.627l-11.956-8.771c-6.385-4.674-12.326-9.24-19.624-11.775l.362-3.143c.074-.634-2.526-.864-2.995-1.284l-1.744-1.555c-3.555-3.176,13.149,1.226,25.614.461-4.937-7.537-13.247-11.758-21.591-16.44-8.574-4.805-15.897-5.25-25.944-5.019l-37.644.897c-4.155.099-12.252-.165-14.729,2.575l-8.928,9.874,9.907,4.781-11.709,2.032c-5.34.922-11.939,7.405-18.11,6.328l-12.754-2.238c-20.924-3.662-26.495,19.015-43.396,3.62l-10.269-4.04-12.161,3.941c-2.287.741-7.562-2.831-10.014-2.781-2.148.041-6.731-.222-7.891-1.835l-6.295-8.747-7.85,10.014,6.344.864-12.169,2.106,10.4,7.356c-1.004,1.786-2.97,5.883-1.851,6.681l5.167,3.711c.041.181-.486,2.732-.938,2.542l-2.83-1.218-9.01-3.867-2.263,3.546c-2.255-.708-6.797-2.148-8.162-1.061-1.588,1.259-4.163,4.888-4.534,5.834l5.332,6.484-22.595-5.965,1.103-3.991c.189-.691-2.51-1.588-2.946-2.189l-8.179-11.248c-11.182-.642-31.942,2.691-30.518,1.514l-4.83,4.007-13.675-3.925c-1.563-.453-4.707.362-6.369.263l-4.419-.255c-1.111-.066-.42,3.086.247,4.962-3.941,3.489-9.528.337-14.646-4.476l9.043-8.73c-3.908-8.796-14.037-19.509-21.122-23.961l-6.673-4.188-1.275,4.657c-.222.815-2.296.675-3.258.321-4.558-6.072-10.787-6.986-17.304-5.702-.016-2.427-.156-4.986-.913-6.072-.88-1.267-4.139-1.67-6.13-1.242,1.753-6.92-5.965-8.985-10.351-12.063l-16.884-11.865c-1.917-1.349-4.805,4.591-4.953,6.599l-5.752,9.035,6.492,7.175c2.403,2.666,8.903,3.028,12.688,3.859l11.116,2.436,10.45,1.95c-3.974,6.171-11.018,10.878-17.806,14.334l-9.133,4.657c-10.335,5.258-22.126,8.269-30.576,16.201l-5.472,9.339-2.189,2.863c-.535.699-3.571-.996-4.493-.782l-16.094,3.694,14.021,15.658,2.37,2.353c.527.518-1.432,2.863-1.514,2.666l-11.215-6.204c-.979-.543-3.324-2.493-4.328-2.148l-4.657,1.621c.354-1.703.938-4.723.066-5.883-1.045-1.391-5.019-3.464-5.496-3.003-.823,2.839-1.654,4.764-1.16,5.554l2.913,4.682-7.488.222-9.89,14.103c-4.139,5.9-1.917,12.63-1.983,19.271-.107,10.532-5.99,21.361-15.379,27.836l4.781-8.845,3.884-14.646c-1.473-8.343-1.646-16.613-.946-24.915l.28-3.349c.058-.691,1.563.016,3.217.675,4.262-7.34.321-13.782-5.48-18.662l-7.973-8.854-8.096,16.168c-3.571,7.126-8.977,11.47-16.679,15.675l3.127,8.952,4.509,10.738c.411.979,2.592,3.226,1.777,3.653l-4.287,2.263c-1.029.543-1.777-4.221-1.893-5.76l-17.592-10.491c-.617-1.029-2.542-4.221-3.604-4.369l-13.914-2.032.263-3.991c-.049.79-20.003-9.183-13.239-17.97.592-.773,2.485.107,4.781,1.086-.774-8.631,4.558-14.86,11.618-19.542l19.295-12.795c8.36-5.546,28.124-6.072,36.328-14.63l-21.369-.609-11.083-.132c-5.398-.058-10.055,2.016-15.329,4.312-3.62,1.572-12.252,2.501-14.523,5.653-2.937,4.073-4.772,7.142-9.076,9.331-8.607,4.369-14.572,12.17-19.69,20.266l-6.903,1.547c-1.317.296-2.658,4.205-1.917,5.422.749,1.226,2.962,2.148,4.937,2.896l8.977,3.415c5.307,2.016,10.269,5.052,14.243,9.668,4.361,2.123,7.488,5.332,10.055,10.532l3.637,1.07c1.045.304,1.177,4.081.395,4.567l-10.688,2.798c-3.028-1.736-10.129-4.353-12.63-2.271-5.299,4.419-11.199,7.726-16.004,3.407,2.098-1.827,3.168-7.06,1.423-6.805l-8.278,1.193-3.999,1.547-1.333-3.069c-.296-.691-3.102-.625-2.937.115l1.053,4.682-9.487-1.794.774,4.863c.132.815-3.662-.165-4.452.214-3.834,2.057-13.141,4.698-15.535-1.893l5.052-7.874c-8.763,1.498-13.914-4.838-20.595.601l3.3,4.131c.634.798-2.016,2.633-2.888,3.16l-2.32,1.391c-1.333.798,4.41,6.665.115,10.96-1.144-.551-3.234-2.238-3.925-1.843l-3.694,2.148-5.25-7.883c.642-4.139-.025-4.575-1.563-7.241-8.245-14.227-16.243-25.03-32.946-30.774l2.049-1.391c.42-.288,1.308-2.049.798-1.991l-3.481.37-5.357.576c-1.078.115-1.967-2.287-2.395-4.238l7.521,1.456,1.687-6.624c-3.579-1.317-8.097-3.481-11.585-6.13-7.595-5.76-17.592.856-31.045-2.872-2.699,1.07-6.657,2.23-9.907,2.732l-4.345,3.25c-1.07.806-5.398-.79-4.789-1.325l3.193-2.222c.469-.321-.576-2.625-1.029-2.279l-2.263,1.687-7.603,7.175c-3.176-3.555-6.879-4.312-10.837-2.74l-11.018,4.361c.296,2.32.938,5.496-.337,6.146-1.794.922-4.879,1.02-7.134.856l.971,3.341c.206.708-.963,2.041-1.679,1.769l-4.32-1.662-1.234,5.529c-6.994-.551-13.807,1.621-18.258,7.504-2.798,3.694-7.735,5.998-12.013,8.541-5.167,3.069-12.927,2.534-25.894,8.409-5.233,2.378-9.611,6.813-16.136,4.172l-6.698,5.735-19.74,20.422c-4.032,4.172-5.348,8.87-4.377,13.758,1.481,7.463,12.762,12.844,19.633,10.154l9.01-3.53c.798-.667,3.76-2.534,3.917-1.53l.79,4.896c-3.941,2.748-5.883,5.603-8.327,9.759l-6.739,11.478c-.477.823-4.336-.025-4.262-.971l.461-5.645c.123-1.489-2.148-3.982-3.587-3.974-1.448.008-4.937.971-6.097,1.909l-11.223,9.043-2.946,9.479-1.827,4.723c-.444,1.144-2.394.527-4.361.239l-2.789,10.294c-6.706,5.06-14.029,4.196-18.267-1.884l-10.738,3.859c-2.617,4.213-6.369,6.476-10.886,7.183l.28,3.316c.033.428-7.159.889-7.628.066l-2.082-3.686-4.97,4.83-10.721-1.555,6.772-3.703,6.081-15.798,5.151-12.992,4.822-11.98,2.329-15.033c5.998-8.105,10.96-18.02,13.782-27.186,3.596-1.555,6.871-4.55,9.981-6.533,7.249-4.632,16.127-6.928,24.578-10.466l-5.34-5.645c-9.133,6.657-20.39,6.821-29.893,10.894l-25.187,10.771.09,3.834c.033,1.127-3.061,2.164-4.147,2.896l-10.507,7.076,7.06,4.945-7.356,7.2c-2.929-2.197-4.616-3.135-5.99-2.97-1.744.214-3.267.691-3.053.263l1.711-3.415c-8.878-7.677-11.75,2.148-19.484.436l-7.142,13.034c-.979,1.786-5.06,4.698-6.55,5.62-4.649-.239-9.586,5.603-10.54,10.491-.453,2.279,3.069,5.077,5.636,6.566,3.818,2.197,5.735,1.382,9.726-.469l12.252-5.686c5.924-2.748,12.968-2.831,15.411-11.001l10.861,1.687c-5.529,4.196-6.681,5.455-7.792,10.014l-.88,3.629c-.173.716-2.304-2.008-2.921-2.921l-4.888,7.735c-4.534,2.666-6.945,4.616-10.656,7.751l-9.487,8.014c-.897.757-2.131,3.423-2.123,4.451.008,1.02,2.468,2.863,3.324,2.296l4.081-2.691c3.283,5.011,7.002,8.549,12.91,7.767,3.226,4.451,8.286,5.776,13.527,2.855.403.576,1.094,2.666.42,3.036l-3.686,2.049c-4.641,2.567-12.367,5.233-17.394-.074-1.275,1.547-3.834,4.353-4.772,3.571l-4.205-3.513c-.403-.337-2.37-.51-2.238-.033l1.44,5.093-9.249-3.448-5.283-2.444c-1.234-.568-3.777,2.23-3.991,3.587l-1.58,9.833c-.609,7.257,2.024,16.062-.502,23.294-1.917,5.513-5.299,12.869-8.673,16.884l-11.47,13.634-13.272-7.636c-2.896-1.67-4.336-4.46-7.002-6.838l-12.49-11.141c-7.183-1.284-13.297,4.6-13.313,11.067l-12.433,19.386c-3.587,5.595-9.866,10.573-12.202,16.827l-9.545,25.516,7.784,12.754-3.53,14.523-4.888,2.551c-1.415.741-.765,6.089-1.909,7.331-14.984,16.21-27.811,12.211-31.934,17.016-2.765,3.226-3.9,4.46-7.331,7.257-3.629,2.954-6.171,12.071-10.647,14.408l-9.018,4.715c-12.68,2.608-22.669,8.105-31.234,17.518l-11.832,13.001-14.342,17.32c-5.036,6.081-8.401,13.025-15.107,18.02-3.316,2.468-3.086,5.949-3.555,9.635l-3.332,26.355-1.399,10.195-9.808,32.246-7.66,22.052c-.691,2,1.95,7.035,2.954,8.911l-1.942,13.256c-.716,4.888-1.136,7.809,2.485,10.754l-3.316,2.353c3.851,3.077,4.591,4.723,6.319,8.524l8.582,18.801,6.509,23.895c2.863,10.524,8.747,18.094,14.72,26.635l8.533,12.194c4.558,6.525,10.516,10.417,17.23,14.901,2.847,1.901,6.352,4.871,10.45,1.613,14.901-11.849,25.705,2.427,32.79,1.078l17.139-3.267c20.159-3.843,35.2-7.208,44.375,14.037l-3.744,6.978,7.628,5.422,8.434-.642,15.765-5.003c9.52,9.158,12.556,19.435,12.466,31.119.535,2.238.815,5.2.115,7.611l-6.286,21.723c-1.843,6.385,3.818,13.634,7.702,19.295,97.101.551,194.647,16.613,287.865,45.65,1.703-4.015,4.772-9.619,7.381-12.359l15.486-16.333,15.699-14.556c14.984-10.82,29.654-20.891,39.339-36.772l21.377-35.052c4.394-7.191,6.13-14.268,3.513-23.302-5.957-.444-11.824-.346-17.756.716l-41.717,7.496c-4.657-4.986-8.483-8.236-13.881-11.972l.683-6.286c-5.678-6.813-10.359-13.889-14.473-22.405-4.509-9.331-17.905-9.273-23.796-35.069-4.229-18.514-20.439-18.489-12.416-28.223-1.144-9.932-2.082-21.599-8.286-29.91-2.666-3.571-6.895-5.603-6.739-10.927.337-10.87-.889-20.842-4.888-30.897-2.682-6.739-2.395-14.737-1.3-21.179,5.027.477,8.327-.395,11.248-3.439-.14-3.02.864-4.287,1.662-1.999l9.471,38.936c3.39,13.93,11.075,19.567,12.696,28.091l4.641,24.446,10.458,12.918c1.893,2.337,1.934,9.059,2.83,12.31l5.678,7.841c3.275,4.517,7.216,8.788,7.776,14.054l1.687,15.93c.963,9.051,3.094,19.468,11.511,25.038,5.315,3.53,12.556-.543,17.559-2.839l9.43-4.32c11.116-.518,20.636-4.542,29.589-10.688l22.068-15.148c7.677-2.181,14.868,2.715,21.089-1.506,3.349-2.271,4.27-5.694,6.245-10.392,2.937-7.002,21.533-8.615,28.091-18.925,4.888-7.677,8.236-15.214,10.121-23.714-2.592-4.312-7.471-11.124-11.594-12.82l-10.302-4.229c-.765-.313-3.16-.51-3.423-1.275l-1.596-4.575-5.603-16.81-6.632,2.008-5.957,8.779-10.754,4.797-18.818,4.476c-2.806-4.328-3.456-9.125-4.756-14.482l-2.592-10.664-5.809-3.069c-1.094-.576-1.432-9.594-7.191-18.456-3.423-5.274-6.648-10.532-8.804-16.415l12.556-7.2c4.065,2.032,7.167,8.936,10.014,13.939l6.418,11.289c6.048,10.623,20.982,19.213,26.248,19.09,11.594-.288,16.687-5.159,19.789-2.74,2.197,1.711,3.217,3.966,3.258,6.698l3.851,3.974c1.81,2.575,4.147,4.007,6.673,5.628,12.836,8.204,25.302,9.808,40.088,8.656,6.755-.518,14.317.872,21.558-1.201,12.4-3.546,11.092,15.494,32.024,21.402-1.029,5.834-.123,9.068,2.608,12.721,4.641,6.196,9.701,13.099,15.675,17.419l8.854-3.308c1.786-2.477,3.003-4.394,6.393-6.517l8.006,41.709c2.74,14.259,7.85,27.795,13.396,41.248l12.548,30.453c2,4.846,3.744,8.854,4.057,14.144.239,4.106,4.27,11.808,8.113,13.248,5.373,2.016,11.98.181,17.164-1.242l1.259-7.397c14.918-15.963,18.332-42.227,14.753-64.073-.288-1.744.864-6.056,1.884-6.632,9.52-1.662,15.518-6.648,21.541-12.096l7.99-7.233c5.727-5.184,10.178-10.771,13.955-17.65l12.647-4.739c4.435-12.416,12.918-22.973,24.035-19.09,3.505-5.381,9.635-2.452,13.14-7.34,1.317-1.843.461-5.225-.568-10.343l13.404,1.317,4.846,12.737c-.066,11.166,11.009,15.346,15.494,25.137l4.912,10.73c1.448,3.16-1.432,7.981-3.917,8.681l4.978,9.849,8.566,3.028,9.676-4.814,4.139.008-3.999-5.834,6.599.527c1.605.132,1.777,4.427,2.485,6.155l15.14,36.813c3.555,8.656.642,17.724-2.707,24.495l-2.427,13.618c-.88,4.937,9.652,15.601,18.316,20.027l-2.822,6.212,6.188,3.423c1.284.708-1.827,4.493-2.74,5.867l5.941,13.363,20.258,15.486c3.151,2.411,4.534,2.485,6.747,6.007l6.895,6.245,2.814-.987c.576-.206,1.07,1.506,1.341,2.139l1.382,3.168c.411.946,3.81.206,4.558-.518.543-.527,1.127-2.674.757-3.407-3.489-6.978.856-7.027-2.789-9.915-10.055-7.965-5.982-22.916-16.029-35.159-3.234-2.032-3.933-2.674-6.484-6.509l-3.793,2.46-9.989-9.076-10.236-19.986-4.846-7.858c-4.312-7.002,4.822-18.629.56-29.35,1.86-1.218,5.99.132,9.331,1.572l17.148,7.389-.773,3.662c-.337,1.588,6.459,1.267,5.225,12.556,5.488.946,12.532.601,19.065-.362l-.592,2.732c-.198.889,2.057,2.065,3.554,2.855,1.67.872.016,5.628-1.168,6.615l7.85,2,8.697-13.313,7.99-7.553c13.618-12.885,14.309-16.21,13.387-35.34-.23-4.772-10.409-23.261-14.786-27.556l-26.487-25.96,11.964-15.189c1.284-1.621.889-7.068,4.098-7.512,3.077-.428,5.036-.082,8.475,1.399l13.873-.436-.395,3.332c.107.568,2.427,2.287,2.855,1.646l2.279-3.407,11.281-11.158,13.371-3.867c2.23-.65,4.822-6.253,5.274-7.702,8.664,2.419,15.971-1.242,22.702-6.846,2.987-2.485,8.352-5.398,10.367-8.45l5.497-8.311,5.933-14.696,5.71-17.773,5.439-18.81c.551-1.892,2.756-5.258,2.625-7.084-.535-7.356-14.087-6.673-7.159-14.803l4.287-5.036c1.16-1.358-1.391-6.105-2.485-7.66l-10.837-15.403-18.275-19.443c3.522-7.751,9.133-14.942,16.383-19.838l3.102-2.098c.831-.56-2.131-3.184-3.036-3.711-11.807-6.871-27.968,9.125-29.062,5.225l-1.391-4.994c-1.72-6.13-8.722-9.504-15.189-12.63l20.299-20.62c6.599-.864,5.208-5.817,10.762-6.673,1.267-.197,2.362,3.941,1.242,4.583-4.6,2.633-9.183,11.956-6.171,16.045,4.353,5.891,10.828-.963,13.445-4.698,3.711-5.315,11.742-6.476,17.641-5.735l7.2,14.671c-.165.551-.749,2.197-.354,2.353l3.267,1.251c3.02,1.152,8.475,5.595,9.586,8.714.066,6.541,1.3,11.956,3.44,17.592l6.451,17.008,2.51,1.621c.683.444,1.835-2.123,2.51-2.584l11.445-7.809c2.362-1.613,3.53-2.584,7.792-4.649-1.678-10.121-6.731-21.295-12.655-31.045-2.287-3.777-7.981-6.262-11.281-7.858l-7.249-10.976,6.27-5.686,4.929-21.056c-1.127-1.358-3.703-3.439-3.3-4.534l1.802-4.929,2.584-8.549,9.751,5.71,13.124-4.739,7.735-11.429,11.289-29.877-3.777-11.964c1.646-5.965,2.855-10.795,1.481-16.218l-3.612-14.259c-1.193-4.707-3.151-7.554-4.764-11.882l-4.797-12.894,9.298-4.871-.469,5.431,7.249,7.463c-.42,3.917.016,5.62,1.078,8.179l4.262,10.244,12.03,29.243c.724,1.753,5.883,5.052,7.266,4.196l6.262-3.867c1.901,3.431,3.217,2.493,2.929-.798.716-1.67.955-2.23.502-2.287l-4.772-.617-8.878-11.964-4.295-7.792,8.352-6.862c-5.2-9.643-11.561-16.144-18.958-23.516l-14.144-18.982-14.975-15.765c-.494-.518-3.546-1.119-3.9-.65-4.888,6.385,7.191,11.618,6.418,14.745-5.974.181-10.211-11.478-10.557-6.846l-.313,4.238-2.493,1.168-4.888-12.639c-1.481,3.777-1.613,4.682-2.477,5.784-1.004,1.284-7.537,1.267-6.78-.148l1.563-2.937c.444-.831-.913-3.267-1.72-2.781l-3.925,2.378-10.014,4.781-.444-7.2c-.082-1.333-1.094-4.303-1.958-5.315-3.769-4.46-9.997,4.879-18.678,7.603l11.635-25.351c3.563-7.751.658-12.721,5.678-25.944,1.259-3.308.658-10.516.189-13.601,7.693-.436,6.434-7.702,13.782-7.076,8.763.741,15.626-.099,20.48-6.41,5.447-.847,13.511.485,18.39-3.464,3.571-2.905,8.039-8.837,7.973-13.93l-7.595-9.775c-3.785-4.871-3.908-10.985.535-15.502l4.764-4.846c2.995,1.218,8.154,4.386,10.376,7.99.041.058.074.115.107.173l3.275.954c.617.428,2.32,2.32,1.687,2.724l-3.102,1.967,10.137,2.041-3.736,4.345c-.954,1.111,1.275,3.925,2.938,4.838l.856-7.027c2.938.37,5.184,8.311,2.518,8.705-12.12,1.802-2.468,3.407-2.872,24.175-.025,1.44,1.267,4.69.263,5.258l-6.319,3.555,6.286,5.661c3.316,8.903,8.887,14.613,15.42,20.612l18.036,16.588,16.275,19.155,7.43,6.533c2.888-4.789,6.435-11.816,5.636-16.333ZM975.858,1020.946c-.115-.148-6.41,3.546-7.957.181-.683-1.481-.453-5.102,0-6.755l.79-2.921c.14-.485,1.374-1.218,1.637-.79l1.967,3.077c.444.708,2.51,2.485,3.217,2.946.88.576,2.534-1.061,3.95-2.09l-1.506,8.969-2.098-2.617ZM1191.799,918.068c.189-.749,4.147-1.316,3.9-.584l-1.086,3.217c-.329.963-3.069-1.629-2.814-2.633ZM1074.531,1066.555c5.003-7.043,10.985-8.483,17.51-9.989,21.838-5.027,24.8-28.239,38.467-29.087l9.923-7.57c-2.197-2.682-4.262-4.641-3.9-5.908l1.514-5.266,2.222-8.705c.634-2.485,3.374-4.295,6.089-5.9,6.336-3.744,12.392-9.224,20.39-9.191l11.083-7.035c.634-.395,4.427-.148,4.164-.856l-1.44-3.843,16.646-9.339,9.964,1.728-3.958,4.172c-4.789,8.442-11.676,12.532-21.607,14.646-4.855,1.029-10.055,8.599-12.828,12.688l-4.69-.09-6.36,17.979,6.138,9.652,16.687.156,11.1-2.608c3.522,5.34,6.229,6.706,12.26,9.059l-14.811,2.756-13.42,2.312c-1.654-4.896-9.841-7.06-11.281-3.925l-1.769,3.851c-.378.839-2.263-1.374-3.028-2.534-.749-1.136-3.678-.905-5.159-.304-1.317.543-2.345,4.781-1.07,5.381l9.635,4.509c-8.491,4.312-1.144,12.318-13.634,12.565l-8.129-12.145-12.021,7.01,1.226,15.206c-6.788-1.037-7.208,4.188-10.162,6.978-4.517,4.262-13.922.913-18.604-.428l4.46-3.497c.708-.56-2.715-2.082-3.588-2.337-.864-.255-1.02,1.308-1.226,3.431-5.776-1.292-10.598-1.3-14.399,4.583l-11.552-1.284c-.922-.107-3.908-2.493-3.374-3.242l2.534-3.579ZM1072.976,1043.713l.066,3.711-4.748.082-.066-3.711,4.748-.082ZM1065.183,1043.672l2.189,10.433c-2.189,1.588-6.015-1.605-6.196-4.345-.132-1.925,1.934-5.11,4.007-6.089ZM1064.879,1055.842l-4.83,10.45c-.963-3.143-1.284-4.526-1.292-6.245-.008-1.967,2.032-3.826,6.122-4.205ZM1145.837,1318.405c-.889.592-1.333,2.51-1.81,4.715l-2.847,13.19-11.124,20.472-4.04,8.878c-2.263,4.978-.798,8.549-.222,15.255-3.086-4.896-4.526-10.565-6.286-15.856l-13.651-7.611c-1.794-.996-5.39-.329-7.438.724l-2.732-1.695c-.79-.485-1.711,3.415-1.884,4.649l-10.894-2.913c-3.991-1.07-9.858-.444-13.7-.082-14.86-11.906-28.387-7.414-36.879-21.665-3.365-5.653-9.52-9.717-15.181-10.557-6.657-.987-13.782,2.016-17.691,7.15l-.996,14.153c-4.114,2.715-11.733,4.41-14.671.749-3.555-4.443-6.838-10.104-11.659-12.869l-9.973-5.71c-1.152-.658-3.308-2.575-4.024-3.67-1.637-2.51,2.403-5.62.527-12.285-.296-1.053-2.518-.527-4.583.156-9.142-5.348-18.464-12.458-25.738-19.83l6.55-9.273,3.843-2.674c.708-.494.51-1.942.806-3.892l.897-8.475,2.592-12.03c.37-1.712-.189-5.176-1.185-6.352-1.16-1.374-5.241-.008-6.871.971l-8.376.411.346-2.518c.091-.683-1.555-1.316-1.958-.773-4.419,5.957-7.142-1.094-15.938-.527-10.606-5.719-22.545-12.12-35.488-10.475l-13.379,1.695c-6.097.774-11.256,3.522-16.794.296-4.394-2.567-7.331-6.36-9.397-12.26l-6.204-7.488c3.193-2.765,8.821-5.101,12.425-5.283,2.181,3.579,4.353,5.085,7.899,5.62l16.489,2.485-1.547-4.402c-.14-.411-.609-1.185-.197-.963,8.845,4.772,16.983-7.693,22.809-19.229l9.043-5.571,8.599-5.908c3.612,1.111,5.998,1.514,8.705,1.226,11.141-1.168,6.936-7.052,14.638-12.449-.88-2.411,1.415-8.319,3.727-7.71l12.021,5.924c1.193,2.411,5.455,7.965,9.035,7.109,7.743-3.497,15.617-7.117,24.068-3.464,2.987,1.292,3.826,9.026,3.357,11.865l2.839,2.444c.658.568-.971,2.732-1.424,3.53l3.736,19.904c.099.535.741,2.213.938,2.633.206.42.708.115,1.037-.263l2.016-2.263c1.267,4.065,2.419,6.953,4.657,10.359,5.768,8.763,4.336,21.007-1.07,29.531-.691,1.086-.675,4.484.049,5.472.872,1.177,4.089,1.21,5.529.634l10.178-4.098,2.172-3.044c.576-.806,2.592,1.259,4.221,3.012l1.218-7.825,6.229-7.101-5.933-14.021-11.939-22.817c-2.724-5.192-2.337-11.52-2.855-16.909l-1.201-12.507,4.814.576c-.263-1.958-.189-4.229.946-4.97,8.854-5.809,2.65,5.389,8.269,11.643-.041,2.649-2.115,9.956-.387,12.54l11.026,16.506,8.928,11.363c3.209,4.098-.115,13.445-1.02,19.41l-2.304,15.214c-.329,2.131,3.711,6.467,4.781,7.315l-3.933,3.16c-.971.79,2.921,3.226,4.287,3.629l.93,7.916c1.563,4.509,2.238,8.557,2.6,13.165,3.012-3.275,5.826-5.858,8.804-7.537l4.871-2.757c1.061-.601-.354-4.394.173-5.48,7.463-15.379-.239-17.691.65-18.464,5.505-4.789,8.681-3.267,10.351-6.138,2.222-3.826.56-10.006,2.765-8.64l3.151,1.958c.658.403,2.361,1.053,2.97.584l3.966-3.02.954,7.084,8.467-6.27.255,7.726,3.456-.798c.798-.181,1.934,2.386,1.02,2.608l-6.04,1.44c-1.399.329-1.86,4.122-2.246,5.603l-10.499,5.003c4.657,3.538,5.743,7.084,3.53,12.005-3.917,8.705,3.398,8.524,4.147,17.567l-7.8,5.496c4.674,1.638,6.903-2.024,9.594-6.229l4.114,6.237,13.774,7.924,12.384-6.015,4.83,9.035,5.126,4.435,12.713-.066c5.702-3.143,10.055-3.719,16.053-1.259l-3.884,2.592ZM1001.801,1243.561c-.033-.543,2.584-.033,2.567.502l-.074,2.699c-.016.535-2.23,1.308-2.263.773l-.23-3.974ZM1206.363,1264.246c-6.805-.091-16.72-1.72-22.628-4.715-13.527-6.838-22.257-18.135-41.166-14.169l-13.774,2.888c-6.5,1.366-12.449,1.703-18.876-1.168l-3.991,3.522-4.007-7.241c-1.86-3.382.535-11.775,3.341-14.424l7.216-6.788,12.606-12.334,10.672-10.08c3.546-3.341,7.759-6.887,12.77-7.841l2.46-4.739,5.472,4.106-5.258,8.187,3.958,2.929c.996.732-.148,3.958-.56,5.389l5.513,7.093c7.924.79,8.656,9.265,21.706-.535l-8.763-6.517-5.102-5.439c5.118-2.197,9.339-3.81,13.889-4.501l23.014-3.513-6.212,10.368-9.701,15.222,6.994,8.212,12.063,12.787,7.463,10.261c.592.815-.971,4.526-.239,5.176l4.443,3.925-13.305,3.941ZM1296.479,977.789c.304-.683,2.444,0,5.71,1.399l-6.953,1.399,1.242-2.798ZM1258.637,992.6c-2.353-2.452,1.925-10.178,1.374-13.511l-1.835-11.001c-1.144-1.909-2.551-4.517-2.822-6.755,4.534,1.045,7.389,2.814,10.261,5.71,3.892,3.933,10.187,6.879,13.84,10.68l4.682,4.871c1.185,1.234,4.32.074,7.2-.378l-6.13,8.171-7.792-8.961.321,6.114c.049.971-2.46.247-4.377-.897l-8.064.535,5.99,11.363c-4.015-.609-9.331-2.477-12.647-5.941ZM1321.6,1232.428l-5.505,6.928-2.024-7.652-3.341,3.192c-1.168,1.127-7.858-5.488-8.294-4.106l-1.621,5.151-6.945,4.748,2.707,12.853c1.037.732,4.813,1.95,7.981,2.839l5.587,8.804-5.85,2.353c6.434,3.464,11.413,6.805,15.272,11.454l-.362,7.191-2.518-3.736c-.535-.798-2.296-.148-3.834.716l-11.009,6.204c.518,5.324,2.32,8.936,5.225,11.594l-1.21,2.929c-.296.708,1.736,1.103,3.974,1.514.757.173,2.501,2.691,1.835,3.102l-4.369,2.723c3.505,3.275,4.163,7.15,2.863,12.005l-1.284,4.813c-.263.979-3.522-.214-4.69-.165l-17.32.699c-6.838.28-8.985-1.761-13.502-5.916-3.456-3.184-9.882-6.311-10.491-11.544-.889-7.611,4.435-12.778,11.24-14.177,5.505-1.127,9.52-4.953,11.314-10.055l-7.298-4.632c-2.271-10.828-14.416-12.704-12.573-26.758-1.358-.584-4.386-2.23-3.818-3.077l2.691-4.024c-3.768-3.555-4.929-9.026-3.974-14.589l.691-3.991,4.46.872,1.465-5.2c.28-1.004,3.983.675,4.633.765l10.047-4.386,15.634-7.784c4.715-2.345,9.685-5.126,15.058-2.748,3.991,1.761,6.558,6.879,8.779,11.487,1.621,3.382,2.74,6.64.378,9.602ZM1421.63,1485.355l.123-2.131,6.286,1.251.535,2.608-6.945-1.728ZM1499.947,974.547l-.963-8.031,8.31,8.952c-.757.798-7.117.979-7.348-.922ZM1518.51,941.329l-2.016-3.143c-.543-.848,3.522-1.999,4.04-1.226l6.015,8.993c-3.415-.14-6.188-1.753-8.039-4.624ZM1528.342,950.216c-1.308-3.127.239-7.101,3.308-7.471l3.818,11.594c-2.164-.14-6.295-2.139-7.126-4.122ZM1626.176,1484.533l-4.114-4.435,2.255-2.09,4.114,4.435-2.255,2.09ZM1643.982,909.47l-9.051,2.872c.527-1.292,2.938-4.081,4.312-4.764l3.818-1.909c1.004-.494,2.098,3.431.922,3.801ZM1690.644,909.429c1.473-2.946,6.517-1.53,7.167,1.605-1.366.806-7.159-.197-7.167-1.605ZM1756.059,1689.547l3.744.872-1.012,4.345-3.752-.88,1.02-4.336ZM1978.813,969.371c-1.029-1.958-1.391-3.908-1.333-6.706l6.912,8.722c-2.032,0-4.92-.765-5.579-2.016ZM1985.988,981.014l-3.719-4.591,2.353-1.901,3.711,4.591-2.345,1.901ZM1992.604,985.474l-2.098-.494c-.691-.165-1.975-2.37-1.308-2.691l3.917-1.868-.51,5.052Z" fill="#12495f"/><path d="M1975.407,980.405l-3.826-2.872c-.782-.724,1.267-3.415,1.859-2.946.049.033.082.099.107.173l1.86,5.645Z" fill="#12495f"/><path d="M2107.857,1942.631c-97.233,25.31-197.255,34.641-295.994,26.832l.107-5.842-.905-9.339c-.757-7.842.848-13.066,3.867-19.764,9.611-21.303,26.594-33.382,50.316-35.612,7.578-.708,15.165-3.587,22.274-6.393,9.57-3.793,19.378-8.854,24.224-18.522,2.468-4.912,5.554-11.026,10.368-12.721l3.135,3.283c.469.494,1.489-2.946,1.777-3.563,11.33-3.703,11.141-10.878,22.299-18.637,8.327-5.793,19.073-8.31,27.277-.584,4.056,3.818,16.703,2.205,15.173-2.773l-1.275-4.147c-.321-1.012,2.222-2.296,3.259-3.086,1.135-4.073,3.875-7.693,8.821-9.471l.206-7.784,5.11,1.646c3.407,1.102,5.406-9.109,18.604-7.364l1.037-2.756c.165-.436,1.646-.592,1.818-.156l1.53,3.95,4.575-6.204c.609,1.004,1.835,4.098,2.164,5.505l.913,3.875c.173.724,2.765.675,3.02-.025l1.547-4.254,8.985,1.777,10.796,2.131c5.784,10.549-10.006,11.306-4.081,22.315-2.559,3.151-5.398,7.628-6.78,11.092,15.955,5.694,21.566,19.221,34.715,22.973,2.839-3.579,4.962-7.842,6.426-11.799l6.723-18.209,1.72-13.099c.88-6.722.864-14.35,3.727-19.896l5.793-11.207,10.137,11.199-3.291,2.682.304,9.775,5.743,12.186c3.571,7.57,8.146,12.087,8.163,21.171.008,4.427,2.444,11.692.93,15.93-5.809,16.3,14.276,16.144,15.132,46.234.173,6.023,1.325,10.902,2.732,15.008-13.807,5.126-28.009,9.709-43.116,13.642Z" fill="#12495f"/><path d="M1311.611,761.082c-2.378-2.518-7.586-8.031-10.878-9.693l-20.316-10.285c-2.074-1.053-6.36-4.04-8.64-3.456-6.739,1.736-13.585,1.662-20.052-.609l-14.589-5.143-22.266,3.9-17.246,3.588-31.218,7.726c-7.85,1.942-16.588,3.258-23.763,6.41l-8.804,3.859c1.053-1.572,3.867-4.024,2.97-4.953l-4.772-4.97-29.86,10.993-21.681,7.562c-17.905,6.245-33.826,16.58-49.205,27.935l-8.837,8.352,14.227-1.761,12.466,2.049c2.345.378,7.405,2.436,9.454,3.686,11.569,7.052,19.254-1.226,33.711-.214l16.243,1.144c-.428,3.694-1.029,8.055.041,10.022,2.468,4.526,15.716,3.028,18.9-.979,1.448-1.835,2.427-6.607,2.732-9.068,3.028.321,7.315.321,10.104-.477l13.84-3.966-.905,7.076,3.579-2.756c.378-.296,1.514.403,2.551,1.02l-7.364,4.665c6.936,4.015,10.557-4.427,16.152-2.255,1.522.592,3.629,1.777,4.287,1.127l2.748-2.691.963-.485c1.975,1.02,6.114,1.382,8.903.65l22.282-5.809c1.736-.453,5.167-3.612,7.257-3.094,1.72.436,3.497,2.065,6.221,4.295l4.517-5.11c6.936-.724,13.527-1.687,19.962-3.884l18.489-6.328,9.487-3.217c2.608-.889,5.768-4.805,8.278.091l-14.457,3.884,12.186,5.579c3.25,1.489,7.364,1.152,11.289-.79l-5.702-3.25c.987-.65,3.505-2.213,2.97-3.012l-2.147-3.258c-1.02-1.539,3.3-5.431,5.184-5.266,5.406.987,12.852-1.094,14.128-7.628l-7.249.115,5.513-6.788,5.554.741c1.308.173,3.662-4.32,2.765-5.274ZM1104.276,765.36c-1.103,0-1.991-.889-1.991-1.991,0-1.094.889-1.983,1.991-1.983,1.094,0,1.991.889,1.991,1.983,0,1.103-.897,1.991-1.991,1.991ZM1109.525,761.633c7.118-4.114,12.565-5.941,20.71-5.25-1.958,3.332-14.111,5.365-20.71,5.25ZM1185.184,801.713h-8.582c-.971,0-4.624.749-4.196,1.563l2.246,4.229c-.041.099-.14.313-.23.535l-6.369-.173,2.394-2.658c.477-.527.049-2.979-.502-2.682l-5.488,2.814c-1.44.741-4.838-.815-6.155-2.929l16.514-3.653,7.43.296,2.617-.197c.691-.058.971,2.855.321,2.855Z" fill="#12495f"/><path d="M1908.742,1691.81c.527,1.292.971,5.028.609,6.352-.428,1.596-3.81,2.987-5.299,4.04l-11.371,19.279-7.01,4.632c3.637,5.036,2.979,10.088-1.3,14.646l-6.402,6.821-9.759,5.192c-3.143-1.259-8.228-7.274-10.664-11.536-3.522-1.465-9.643-.321-13.511,1.901l-4.106-3.25-12.112-.543,2.419-3.522c.362-.527-1.333-1.892-1.744-2.501l-16.275-24.002c-2.139-3.143-.568-11.914.255-15.913,16.259-5.529,31.769-11.281,43.741-23.738l13.906-14.465-.527-3.555c-.148-1.029,3.867-1.012,5.028-1.004l3.678-7.142,8.138-11.536-4.147-3.727c-.847-.757,3.571-2.312,4.402-3.184l15.198-15.955c-1.292-4.698-1.555-9.627,3.094-11.824,2.222,2.263,5.011,6.624,5.25,9.199.304,3.258-2.32,7.759-4.674,10.285l-10.294,11.083c-2.987,3.217.058,12.046,3.349,14.079,3.374,2.09,4.435,3.908,7.027,6.229l12.918,11.585c-3.81,2.666-11.297,5.924-12.482,9.454l-3.546,10.631,3.431-.757c.634-.14,2.419,1.086,1.975,1.563l-2.592,2.863,3.398,8.319Z" fill="#12495f"/><path d="M2185.976,1798.695l-6.541-7.241c-5.867-6.5-11.914-13.124-16.317-20.488l-3.892-6.525,2.329-4.789-6.492-3.933c-1.135-.691.198-4.723.798-6.484-2.213-3.793-7.587-6.978-12.096-8.895l-7.035-5.274-29.992-11.503c-9.495-3.645-17.781-7.842-27.811-10.096l-1.169,5.134c-.181.79-4.024,1.168-4.567,1.753-12.54,13.634-19.303,8.969-18.727,6.871l1.382-5.052.42-9.421-9.742-4.369-13.807-1.514c-6.163-.675-10.466-.535-16.341-5.134-.93.765-2.757,4.616-2.09,5.965l2.608,5.266-3.908-1.012c-.559-.148-1.44,2.427-.864,2.436l3.694.058,10.763,6.969c-1.539,1.185-4.032,3.291-3.192,3.456l3.11.625c1.44.288,4.427-.066,4.888.93l1.588,3.423,6.344,5.595-3.423,4.55c-.453.601,1.201,2.559,1.917,3.3,1.02-1.086,2.6-2.584,3.612-2.032,1.02.559,3.802,3.703,2.732,4.163l-4.254,1.81-3.373,1.448c-.436.181,0,1.465.255,2.073,1.613,6.089,4.731,8.294,13.067,7.233l-7.356-9.981,8.911-.551-1.654,5.834c2.074-.214,4.468-.782,4.599-1.925l.518-4.484,14.523-1.967,9.759,7.981c3.678,3.02,6.698,15.543,3.16,16.926l-5.875,2.296,6.525,12.861,19.616,2.633,5.62.428,12.252,1.81,6.254-8.599c2.937-4.04,12.622-5.801,16.95-3.941,6.854,11.923,18.349,20.595,30.617,21.27,1.736.872,5.266,2.205,7.118,2.197l3.554-.016c.469-.008,1.127-2.041,1.037-2.065ZM2017.618,1711.582c-.14-.996,4.262-1.119,4.476-.132.428,1.909-4.213,1.966-4.476.132Z" fill="#12495f"/><path d="M2018.959,1228.816l5.315-9.372c2.732-4.805,4.608-9.742,8.368-13.823l6.146-6.657-1.925-7.208c-.107-.387,11.19-19.912,11.133-30.938l-13.585,20.069-3.62,5.933,3.135,4.888c-2.855.362-6.262.313-6.978,1.498l-3.094,5.143c-.724,1.21-4.797-.749-6.212-1.341-4.501,1.399-9.808-.288-12.606-2.756-8.171,5.315-5.085,18.662-1.448,29.934l-1.744,7.973c-.436,1.563-1.695,3.472-1.078,4.435l2.962,4.657,9.471,18.876c.107,2.024.469,7.669-.189,10.326l-3.135,12.581,3.415-.255c.436-.033.667.518.502.905-.181.42-1.284,2.131-1.637,2.386l-10.269,7.15-3.151,9.224c-1.325,1.234-4.287,4.6-3.407,6.007l3.415,5.472-7.734-4.287c-3.415,1.226-5.093,1.629-8.385,2.016l-5.365,4.32c-1.407-.222-4.526-.296-4.69.683l-.642,3.801-4.188-1.358c-.79-.255.041,3.769-.197,4.575-.074.247-.156.502-.247.749-.099.255-.197.51-.304.774-.115.255-.23.518-.362.782-.091.197-.189.395-.296.593-.074.14-.148.28-.23.42-.099.189-.206.387-.321.576-.148.271-.313.543-.477.806v.008c-.23.37-.469.74-.724,1.111-.206.304-.411.609-.625.913-.181.255-.362.51-.551.757-.403.56-.823,1.111-1.259,1.646-.214.263-.419.527-.634.79-.74.905-1.497,1.786-2.246,2.617-.206.239-.419.469-.634.699-.206.23-.411.461-.625.683-.206.222-.403.436-.601.642-.897.954-1.728,1.802-2.436,2.51-.074.074-.156.148-.23.23-.222.222-.436.428-.625.617-.066.066-.132.123-.189.189-.123.115-.23.222-.337.329l-.148.148c-.058.049-.107.099-.148.148-.082.082-.156.148-.222.214-.033.033-.066.066-.091.09-.058.049-.099.091-.132.132-.016.025-.033.041-.049.049-.025.025-.033.041-.033.049l-4.41,1.218,6.879,1.786c1.103,3.974,2.863,7.8,5.06,11.454l5.62,9.339c.453,6.747,2.6,12.194,6.048,17.559,9.643-9.594-3.316-17.181,4.344-21.558l-3.192-6.426-7.224-17.296c2.065-1.539,3.678-2.534,3.653-3.629l-.14-5.554c2.962,1.259,6.887,3.637,9.092,5.365l-5.933,2.789c-1.053.494.584,4.888.765,4.41,1.777-.617,5.71-1.193,5.636.123l-.296,4.896-.058,6.846,5.422-9.133c.749,2.436,1.415,5.595,2.74,5.834l4.846.864-3.637-4.624c4.04-9.668,12.416-13.355,11.026-10.096l-1.341,3.135c5.2,2.287,10.993-1.275,12.721-6.936l5.752-6.278-4.608-1.679c-.378-.14.782-1.152,1.127-1.407l2.115-1.572c2.172,1.662,6.821,2.09,7.48.411-1.999-2.419-4.336-6.344-2.748-7.2,1.169-.634,3.686.79,3.777,1.843l.444,5.06,4.863-5.2c9.076-8.055,10.886-12.639,8.492-22.076l-2.46-9.693c-.634-2.526-1.728-5.76-2.74-8.088l-.559-20.529c-4.295-3.448-5.496-6.805-6.327-11.89l-4.945-10.318c-.411-.847-3.711-1.95-3.184-2.74l2.098-3.135ZM2019.132,1236.386l-.568,4.517c-2.279-.913-3.76-3.991-3.069-5.332.634-.337,3.736.008,3.637.815Z" fill="#12495f"/><path d="M1781.171,1741.681l-.971,13.33c-.247,3.448-5.505,7.916-9.092,11.487-13.198-7.447-27.063-15.214-36.138-27.811l-24.611-34.188c.008-1.21.378-3.143-.271-3.736l-3.332-3.061c-3.127-2.872-6.369-7.554-10.08-10.104l-10.145-6.986c-2.97-2.041-5.101-9.825-7.093-12.844l-8.261-12.499,10.113,4.855c9.569,2.526,17.485,6.854,25.154,13.305l17.213,14.506,8.821,4.641c10.944,2.427,24.907,10.491,23.903,13.972l-.708,2.444c-.115.411,1.07,1.415,1.341,1.078l2.222-2.724c6.797,4.896,6.105,12.828,10.565,15.173,2.921,1.53,8.368,4.147,7.874,6.591l-1.555,7.71c-.305,1.506,2.814,3.357,5.052,4.863Z" fill="#12495f"/><path d="M1977.135,1688.733c-7.29,4.032-9.742,12.77-20.744,13.461l-18.135,1.144-16.234,1.44,2.962,7.809c.304.815,3.225,1.958,3.884,1.275l3.538-3.703c.247.148,2.83,2.715,3.826,3.736l16.004-4.772c.979,7.636-4.97,3.818-6.862,4.739-5.274,2.567-6.64,11.462-3.744,16.259.518.864,3.637,2.123,3.382,3.102l-1.284,4.855c8.088,4.896,1.695,10.573,6.673,17.403l-8.121,2.724-14.622-14.72c-3.02,8.162-4.501,14.745-5.406,20.686l-8.45-2.09c-.823-.206-2.246-2.106-1.588-2.427l3.472-1.703-1.785-8.837c-3.069-5.085-4.081-9.158-2.559-15.625l3.102-13.214-2.189-2.765c-1.712-2.156,11.355-10.112,2.156-17.6l13.519-6.871c7.027-3.571,13.963-1.152,20.571-7.142l14.622,1.267,12.005.271c.667.016,2.501,1.02,2.008,1.3Z" fill="#12495f"/><path d="M1970.421,1602.213l-2.37-3.867c-.37-.609-1.448.132-2.106.65l-8.245,6.476.453-8.236,7.307-1.02c-6.13-2.97-9.709-6.402-12.104-11.783-5.949,1.835-13.363-2.756-16.646-8.664-.913.058-3.497,1.061-2.987,1.654l2.419,2.831,1.489,1.753c.305.354.42,2.164.025,1.901l-2.715-1.851c-1.44-.971-4.764-1.975-6.879-1.613,1.522,3.332,4.279,4.912,7.578,7.035.979,1.275-2.765,4.238-4.888,4.09-4.904-.337-10.549-6.895-9.158-13.922l-.666-8.483-4.098-2.148c-1.358-.708-.897-4.904-1.374-6.36l-2.995-9.199-4.328-1.004c-1.234-.28.115-4.698.905-5.752l7.331-9.652-3.217-22.011c-.247-1.711,4.493-3.143,6.311-2.666,2.246.592,4.27,1.893,6.673,3.571,2.041-.362,7.85.527,8.664,2.789l-1.333,18.234c-1.991,2.09-2.567,3.744-2.921,6.525l-1.432,11.075-1.103,3.834c-.296,1.037,2.148,3.834,3.135,3.398l4.847-2.106,3.719,2.929c.823.65,3.472.165,4.04.222l1.21,6.797c.23,1.292,4.781-.214,5.48-.543l-.28,7.916,6.138-2.872c-.041.206-.88,3.974-1.481,6.706,9.824,3.283,20.242,12.186,15.601,23.368Z" fill="#12495f"/><path d="M1982.22,1775.845l-6.114,4.665c-1.259.963-1.243,3.9-1.465,6.023-13.215,2.946-25.837,19.83-35.209,12.762,5.628-2.468,8.944-4.114,11.733-8.681,2.88-4.731,9.849-1.654,9.66-8.755l-1.333-.667h-.008l-11.783.058c-12.729.066-18.555,6.673-31.424,6.887l-22.282.37-21.476,3.67-14.358-2.872-13.527-2.954-21.912-1.72-33.941-4.369c-5.291-.683-9.545-2.888-13.725-5.949,4.929-2.164,8.138-1.753,11.478.041.42.008,2.181-3.16,1.374-3.777l-4.616-3.522c2.296-1.629,5.661-1.646,8.952,1.456,1.958,1.843,2.699,4.295,2.123,8.278l11.832-4.781c4.641,1.662,11.914,2.699,14.967-.378l2.707-2.732c.576-.576,1.86.683,2.946,1.382,4.155-.461,12.038-2.641,15.732-1.284l16.868,6.171c2.098,4.526,3.81,5.686,8.656,6.854l8.335,2.008,19.106-1.325,19.666-.51,21.714-3.513c6.418-1.045,8.442-5.348,20.373-3.744l2.987,4.863,1.177.724,4.18-4.41c.197.946.444,2.139.634,3.053,5.11-4.221,9.948-4.813,15.971-3.324Z" fill="#12495f"/><path d="M1070.622,878.252l-9.15,7.595c-3.637-2.707-4.476-2.863-8.812-2.041-5.455,1.045-11.306-2.674-15.815-4.888l-12.063-5.908,4.196-9.964,7.899-7.669,2.065,1.942,6.286-8.755c1.53-2.131,5.513-4.114,8.821-1.868,4.057,2.756,6.336,8.467,9.125,13.165l11.594,8.434c4.122,3.003-1.909,8.097-4.147,9.956Z" fill="#12495f"/><path d="M1976.435,1643.041c-1.572,2.748-8.146,2.962-6.04,10.104l-12.293-3.201c-3.3-4.057-4.303-6.624-4.065-10.902-3.11-2.938-8.821-6.953-12.713-9.191l-2.543,5.332c-.354.757-2.263-1.728-2.905-2.312l-2.049-1.843c-.453-.403.329-2.773.889-2.551l4.221,1.662.551-8.623,3.818,3.53c2.353,2.172,2.32-5.99,5.077-10.121.749-1.119,3.843,1.728,4.591,2.592.905-.551,3.011-2.287,3.769-1.785l4.007,2.641,10.878-6.788,3.193-1.991c.749-.469,3.373,1.547,2.814,2.23l-2.872,3.505c2.559,7.817,6.566,19.172,1.67,27.713Z" fill="#12495f"/><path d="M1553.373,1657.07c-3.818,9.281-12.128,13.593-21.089,11.026-2.23-5.694-2.979-9.216-3.053-13.955l-.189-12.474.634-8.812,4.369-3.439,9.833,1.292c7.702,5.826,14.161,20.71,9.495,26.363Z" fill="#12495f"/><path d="M1775.576,877.182c-3.834,2.831-5.57,5.324-7.66,10.442-7.751.913-11.882-6.69-18.941,3.102l-.148-5.974c-7.595-.263-13.758-1.168-20.233-4.122,2.312-4.69,4.822-6.155,7.932-8.286,6.838-4.674,10.376-2.633,17.263-1.613l13.848,2.041c2.954.436,5.71,1.934,7.94,4.41Z" fill="#12495f"/><path d="M1992.242,1711.105l3.925,2.436c-2.337,2.32-2.83,2.74-4.739,6.311l-9.216,5.233-3.481-7.076c7.628-9.273,2.444-20.817,12.556-26.758l.247-11.635c.016-.642-1.391-2.682-1.703-3.242-.469-.831,2.559-2.666,2.97-1.736l1.448,3.291c.263.584,1.901.025,3.859-.411,3.086,11.445,3.316,26.067-5.867,33.588Z" fill="#12495f"/><path d="M1911.358,1479.489l2.888,5.933-12.169-4.904,2.699-5.496c.889-1.835-1.802-5.357-4.188-6.945l-.774-8.245,7.34-18.859,8.566-.14-.617,10.187c3.374,6.755,2.098,13.033-2.501,18.941l-1.242,9.528Z" fill="#12495f"/><path d="M2207.599,1745.491l-9.331,8.689c-7.751,7.216-20.274,5.916-29.021.214,2.468-2.361,5.628-3.505,8.598-3.941l8.105-1.201,2.098-4.558c.477-1.045,3.332-.559,4.493-.732,8.401-5.356-1.802-10.968-.839-17.057,3.653,6.171,12.91,3.151,14.054,9.076l1.843,9.512Z" fill="#12495f"/><path d="M1818.799,1518.91l-6.879,10.491c-2.666,4.065-17.238-2.312-18.152-8.541-.329-2.255,1.794-5.159,3.744-6.303l8.969-5.258c.93-.543,3.415-1.572,4.419-1.424,1.259.189,3.234,1.531,4.641,2.567l3.917,2.872c1.086.806.082,4.451-.658,5.595Z" fill="#12495f"/><path d="M2254.903,1773.121c-5.052,3.061-10.606,6.566-13.601,10.244l-7.43-4.6c-1.736-1.086-2.378-5.159-1.835-6.731l1.07-3.077c.255-.757-2.411-.823-3.398-.815-.782.008-.189,1.843.444,3.711l-7.661,4.649,1.407-9.158,8.59-1.251c16.234-2.378,26.808,4.361,22.414,7.027Z" fill="#12495f"/><path d="M2019.823,1725.406l-6.772,9.068c-12.425-2.814-23.459,5.694-34.073.757,4.221-3.086,7.43-4.394,11.149-5.842l16.275-6.352c3.077-1.193,9.997.535,13.42,2.37Z" fill="#12495f"/><path d="M1937.096,856.719c-4.394,5.151-10.063,8.771-17.551,7.381-2.831-.527-6.056-4.18-5.776-6.986,6.443-6.278,16.407-7.191,23.327-.395Z" fill="#12495f"/><path d="M1950.377,1604.508c-3.234,1.547-6.048,3.596-9.142,6.212-.88.848-5.019-2.699-4.674-4.484.346-1.785,2.37-4.805,3.604-6.533-1.242-3.604-1.925-8.549-.247-11.478,2.946.148,5.25.222,5.998,1.267,1.292,1.794-6.056,9.635-2.197,8.936l7.085-1.292c.37.09.049,6.031-.428,7.372Z" fill="#12495f"/><path d="M1719.723,1729.018l-5.546.263-5.941-9.94-.551-.93-11.413-14.293-.091-10.475c2.46,1.967,7.595,5.62,9.216,8.072l5.974,9.035-2.798,7.068.354.633,3.785-1.053,7.01,11.618Z" fill="#12495f"/><path d="M1968.503,1408.298l-6.673,14.729-3.867-2.485c2.699-2.189,4.081-3.694,4.863-6.295l3.332-11.19c.362-1.21-.889-4.657-.058-5.571l4.879-5.357c1.349,5.266-.049,10.82-2.477,16.168Z" fill="#12495f"/><path d="M1654.341,1592.726c4.83,5.077,4.048,13.749-2.205,17.863l-1.473-17.699c-.206-2.493,6.015-6.196,8.442-4.262l-4.764,4.098Z" fill="#12495f"/><path d="M1358.701,953.886l-9.331,5.472-.42-6.55c-.074-1.144-2.83-2.279-4.484-3.489.749-1.539,7.159-4.509,8.566-2.707l5.669,7.274Z" fill="#12495f"/><path d="M2020.835,1775.466l-8.812,4.723c-1.177.625-2.929,1.16-3.95,1.267-1.284.14-3.234-3.999-2.016-4.394,2.979-.757,9.018-2.222,11.536-3.513l2.748-1.407c.56-.288.922,2.995.494,3.324Z" fill="#12495f"/><path d="M1908.141,1798.283c-.502.444-3.579,2.584-5.134,3.448-1.432.79-4.46-2.518-5.176-3.999l-1.349-2.789c-.271-.56,1.44-2.287,2-1.975l9.66,5.315Z" fill="#12495f"/><path d="M2104.648,1044.273l-8.854-11.083c5.941-1.843,10.878,4.558,8.854,11.083Z" fill="#12495f"/><path d="M1150.429,811.477c.919,2.949-6.409,5.447-7.742,3.314-.467-.748-.314-3.85.57-3.791l7.171.477Z" fill="#12495f"/><path d="M1291.033,785.042c.957-.505,5.077.124,4.773,1.162l-1.069,3.656c-.304,1.039-3.87.961-4.807.42-1.172-.677-.094-4.606,1.103-5.237Z" fill="#12495f"/><path d="M2174.25,1719.572l-6.204-.058c-1.341-.008-2.427-1.794-1.925-5.151l8.129,5.208Z" fill="#12495f"/><path d="M2229.347,1756.788c.148.691-3.752,2.032-5.192,1.72-1.415-.304-2.518-3.826-2.115-5.291l7.307,3.571Z" fill="#12495f"/><path d="M2161.102,1755.538l-.93-5.324c2.83,1.654,4.764,2.921,5.842,4.295.741.946-4.707,2.197-4.912,1.029Z" fill="#12495f"/><path d="M1293.492,1578.376c-1.522,2.921-5.768,4.682-9.01.181l9.01-.181Z" fill="#12495f"/><path d="M1938.339,1441.005l-7.792,5.315c.395-3.127,2.592-6.533,7.792-5.315Z" fill="#12495f"/><path d="M1780.423,1722.888c-.362.444-4.18,2.32-4.246,1.423l-.543-7.233,4.789,5.809Z" fill="#12495f"/><path d="M1660.57,1637.372l-3.941,7.463-1.218-5.398c-.255-1.144,3.209-2.082,5.159-2.065Z" fill="#12495f"/><path d="M1500.408,929.357l-3.061-2.427c-.782-.617.815-4.402,1.925-5.085l1.136,7.512Z" fill="#12495f"/><path d="M2065.86,1031.437l-3.752-.568c-.996-.148-1.078-3.546-.099-3.39l3.826.601c.765.123.773,3.472.025,3.357Z" fill="#12495f"/><path d="M2199.799,1804.339l-5.455,2.97,2.378-5.069c.304-.65,2.024-1.284,2.649-1.555.625-.263,1.012,3.332.428,3.653Z" fill="#12495f"/><rect x="847.983" y="1611.797" width="3.267" height="6.035" transform="translate(-810.584 857.708) rotate(-37.735)" fill="#12495f"/><rect x="1120.95" y="824.641" width="5.671" height="2.834" transform="translate(-264.92 696.587) rotate(-30.992)" fill="#12495f"/><rect x="1804.676" y="1732.163" width="3.805" height="4.751" transform="translate(-487.5398 2739.2153) rotate(-67.4849)" fill="#12495f"/><path d="M1779.929,1764.992c.173.782-1.341,1.967-2.139,2.041-.79.082-2.863-1.736-2.172-2.123l3.818-2.106.494,2.189Z" fill="#12495f"/><path d="M1975.061,1723.316l-2.098,3.991c-2.098-.889-3.184-1.465-2.551-1.769l4.649-2.222Z" fill="#12495f"/><path d="M1786.635,1732.293l-2.106,6.936c-1.078-2.361-.625-5.332,2.106-6.936Z" fill="#12495f"/><rect x="1986.579" y="1357.508" width="4.438" height="3.914" transform="translate(-390.6424 1735.9321) rotate(-43.3456)" fill="#12495f"/><path d="M1133.667,1317.072l-12.713.066-5.126-4.435-4.83-9.035-12.384,6.015-13.774-7.924-4.114-6.237c-2.691,4.205-4.92,7.866-9.594,6.229l7.8-5.496c-.749-9.043-8.064-8.862-4.147-17.567,2.213-4.92,1.127-8.467-3.53-12.005l10.499-5.003c.387-1.481.848-5.274,2.246-5.603l6.04-1.44c.913-.222-.222-2.789-1.02-2.608l-3.456.798-.255-7.726-8.467,6.27-.954-7.084-3.966,3.02c-.609.469-2.312-.181-2.97-.584l-3.151-1.958c-2.205-1.366-.543,4.813-2.765,8.64-1.67,2.872-4.846,1.349-10.351,6.138-.889.774,6.813,3.086-.65,18.464-.527,1.086.889,4.879-.173,5.48l-4.871,2.757c-2.979,1.678-5.793,4.262-8.804,7.537-.362-4.608-1.037-8.656-2.6-13.165l-.93-7.916c-1.366-.403-5.258-2.839-4.287-3.629l3.933-3.16c-1.07-.847-5.11-5.184-4.781-7.315l2.304-15.214c.905-5.965,4.229-15.313,1.02-19.41l-8.928-11.363-11.026-16.506c-1.728-2.584.346-9.89.387-12.54-5.62-6.254.584-17.452-8.269-11.643-1.136.741-1.21,3.012-.946,4.97l-4.814-.576,1.201,12.507c.518,5.39.132,11.717,2.855,16.909l11.939,22.817,5.933,14.021-6.229,7.101-1.218,7.825c-1.629-1.753-3.645-3.818-4.221-3.012l-2.172,3.044-10.178,4.098c-1.44.576-4.657.543-5.529-.634-.724-.987-.741-4.386-.049-5.472,5.406-8.524,6.838-20.768,1.07-29.531-2.238-3.407-3.39-6.295-4.657-10.359l-2.016,2.263c-.329.378-.831.683-1.037.263-.198-.42-.839-2.098-.938-2.633l-3.736-19.904c.453-.798,2.082-2.962,1.424-3.53l-2.839-2.444c.469-2.839-.37-10.573-3.357-11.865-8.45-3.653-16.325-.033-24.068,3.464-3.579.856-7.841-4.698-9.035-7.109l-12.021-5.924c-2.312-.609-4.608,5.299-3.727,7.71-7.702,5.398-3.497,11.281-14.638,12.449-2.707.288-5.093-.115-8.705-1.226l-8.599,5.908-9.043,5.571c-5.826,11.536-13.963,24.002-22.809,19.229-.411-.222.058.551.197.963l1.547,4.402-16.489-2.485c-3.546-.535-5.719-2.041-7.899-5.62-3.604.181-9.232,2.518-12.425,5.283l6.204,7.488c2.065,5.9,5.003,9.693,9.397,12.26,5.538,3.225,10.697.477,16.794-.296l13.379-1.695c12.943-1.646,24.882,4.756,35.488,10.475,8.796-.568,11.52,6.484,15.938.527.403-.543,2.049.09,1.958.773l-.346,2.518,8.376-.411c1.629-.979,5.71-2.345,6.871-.971.996,1.177,1.555,4.641,1.185,6.352l-2.592,12.03-.897,8.475c-.296,1.95-.099,3.398-.806,3.892l-3.843,2.674-6.55,9.273c7.274,7.373,16.596,14.482,25.738,19.83,2.065-.683,4.287-1.21,4.583-.156,1.876,6.665-2.164,9.775-.527,12.285.716,1.094,2.872,3.011,4.024,3.67l9.973,5.71c4.822,2.765,8.105,8.426,11.659,12.869,2.937,3.662,10.557,1.966,14.671-.749l.996-14.153c3.908-5.134,11.034-8.138,17.691-7.15,5.661.839,11.816,4.904,15.181,10.557,8.492,14.251,22.019,9.759,36.879,21.665,3.843-.362,9.709-.987,13.7.082l10.894,2.913c.173-1.234,1.094-5.134,1.884-4.649l2.732,1.695c2.049-1.053,5.645-1.72,7.438-.724l13.651,7.611c1.761,5.291,3.201,10.96,6.286,15.856-.576-6.706-2.041-10.277.222-15.255l4.04-8.878,11.124-20.472,2.847-13.19c.477-2.205.922-4.122,1.81-4.715l3.884-2.592c-5.998-2.46-10.351-1.884-16.053,1.259ZM915.767,1208.936c-.239.806-1.325.65-3.497.774.494,1.078,1.259,4.591.099,5.488-1.16.889-4.575,2.115-5.908,1.506-1.555-.699-4.024-4.452-3.76-4.814l10.516-5.538c.551-.288,3.439-.346,3.275.189l-.724,2.394ZM962.215,1201.424c-.897,3.242-3.933,8.08-3.941,11.034l-.041,11.873c-5.9,3.16-9.002,6.978-10.935,14.408l-7.924-8.632,4.534-11.659c1.662-4.279,7.578-9.553,8.599-13.716,1.448-5.9,2.74-8.434,6.912-11.906l6.722-5.595-3.925,14.194ZM978.877,1275.692c-2.329-1.226-7.134-4.147-9.117-6.114-2.617-7.257-.321-16.679,5.455-21.41l8.401,8.96,6.731,7.488c-7.891,3.283-8.598,3.867-11.47,11.075ZM1047.879,1303.989l-3.76-3.291c.181-.346,1.695-2.123,2.296-1.827l5.11,2.543c-.107.494-2.896,3.234-3.645,2.575ZM1059.3,1310.942l-7.842-4.888,1.391-3.81c5.11,3.991,10.014,4.838,16.234,3.242-.634,2.345-7.471,6.895-9.783,5.455ZM1068.771,1287.302l-2.065-6.196,2.485-.831,2.065,6.204-2.485.823ZM1139.739,1329.694l-7.446,2.979c-3.127,1.251-7.949,2.485-10.787,1.662-2.625-.757-6.204-4.715-6.854-7.183,2.617,1.152,6.237,3.349,7.932,2.658l16.876-6.92c1.292.28,1.843,6.179.28,6.805Z" fill="#12495f"/><path d="M1215.465,1251.208c.591.813-.974,4.523-.24,5.172l4.44,3.928-13.304,3.936c-6.802-.085-16.715-1.718-22.629-4.709-13.52-6.839-22.254-18.142-41.162-14.175l-13.775,2.89c-6.502,1.364-12.45,1.706-18.876-1.164l-3.992,3.523-4.003-7.248c-1.865-3.378.53-11.767,3.342-14.416l7.212-6.795,12.604-12.334,10.672-10.073c3.546-3.347,7.759-6.889,12.77-7.842l2.465-4.74,5.468,4.107-5.254,8.182,3.952,2.928c.996.738-.148,3.961-.561,5.394l5.519,7.096c7.92.783,8.658,9.261,21.708-.538l-8.763-6.514-5.107-5.444c5.117-2.194,9.339-3.806,13.894-4.5l23.014-3.508-6.218,10.365-9.7,15.225,6.999,8.212,12.059,12.781,7.464,10.266Z" fill="#12495f"/><path d="M1309.832,1305.405c.762.175,2.503,2.69,1.84,3.103l-4.373,2.719c3.504,3.282,4.161,7.156,2.864,12.011l-1.284,4.808c-.262.981-3.522-.213-4.692-.165l-17.317.704c-6.84.278-8.986-1.765-13.504-5.92-3.456-3.178-9.88-6.31-10.49-11.544-.887-7.611,4.436-12.775,11.243-14.173,5.5-1.13,9.52-4.953,11.309-10.054l-7.299-4.63c-2.265-10.833-14.411-12.71-12.572-26.763-1.358-.588-4.388-2.228-3.816-3.081l2.692-4.018c-3.77-3.558-4.93-9.024-3.974-14.59l.686-3.992,4.46.873,1.465-5.2c.283-1.004,3.988.676,4.633.767l10.052-4.384,15.629-7.786c4.716-2.35,9.685-5.125,15.059-2.75,3.99,1.763,6.563,6.881,8.779,11.49,1.626,3.383,2.739,6.634.383,9.599l-5.505,6.927-2.023-7.654-3.341,3.199c-1.171,1.122-7.862-5.494-8.298-4.106l-1.618,5.15-6.949,4.742,2.708,12.853c1.04.739,4.815,1.95,7.985,2.842l5.586,8.805-5.85,2.355c6.436,3.459,11.412,6.807,15.269,11.449l-.356,7.193-2.519-3.734c-.537-.796-2.299-.147-3.837.718l-11.008,6.198c.521,5.329,2.319,8.94,5.222,11.599l-1.209,2.928c-.293.709,1.735,1.1,3.973,1.514Z" fill="#12495f"/><path d="M1129.219,1050.725l1.22,15.206c-6.788-1.035-7.207,4.186-10.159,6.974-4.514,4.263-13.926.919-18.605-.429l4.459-3.496c.707-.554-2.715-2.08-3.583-2.336s-1.027,1.313-1.23,3.435c-5.777-1.295-10.596-1.303-14.401,4.578l-11.548-1.284c-.923-.103-3.907-2.487-3.371-3.243l2.535-3.573c4.995-7.042,10.985-8.489,17.509-9.991,21.832-5.027,24.794-28.241,38.464-29.084l9.92-7.572c-2.194-2.685-4.262-4.64-3.897-5.91l1.513-5.264,2.223-8.709c.633-2.478,3.376-4.293,6.092-5.898,6.329-3.742,12.392-9.222,20.384-9.192l11.087-7.03c.629-.399,4.422-.152,4.158-.857l-1.439-3.84,16.65-9.346,9.963,1.729-3.962,4.175c-4.786,8.444-11.671,12.527-21.604,14.643-4.855,1.034-10.055,8.598-12.823,12.691l-4.694-.089-6.361,17.974,6.144,9.655,16.68.158,11.102-2.612c3.52,5.342,6.227,6.711,12.264,9.058l-14.814,2.759-13.419,2.313c-1.654-4.898-9.842-7.064-11.281-3.928l-1.768,3.853c-.385.839-2.266-1.373-3.03-2.532-.749-1.137-3.681-.911-5.157-.307-1.319.539-2.347,4.784-1.068,5.382l9.627,4.506c-8.487,4.315-1.136,12.317-13.633,12.565l-8.123-12.144-12.022,7.013Z" fill="#12495f"/><path d="M1273.356,986.643l-8.063.537,5.991,11.363c-4.012-.616-9.33-2.484-12.646-5.941-2.355-2.456,1.925-10.183,1.371-13.512l-1.831-11.002c-1.143-1.906-2.547-4.517-2.824-6.757,4.533,1.046,7.389,2.813,10.259,5.713,3.891,3.933,10.19,6.877,13.844,10.679l4.678,4.869c1.185,1.234,4.321.079,7.202-.378l-6.132,8.174-7.789-8.966.322,6.121c.051.969-2.461.245-4.381-.9Z" fill="#12495f"/><path d="M977.957,1023.559l-2.1-2.616c-.116-.144-6.408,3.549-7.956.186-.681-1.479-.451-5.102-.002-6.754l.796-2.925c.133-.489,1.366-1.219,1.637-.792l1.959,3.083c.45.708,2.515,2.484,3.219,2.944.88.575,2.54-1.063,3.949-2.092l-1.503,8.966Z" fill="#12495f"/><path d="M1531.646,942.746l3.818,11.592c-2.162-.144-6.294-2.135-7.123-4.119-1.309-3.133.244-7.108,3.305-7.473Z" fill="#12495f"/><path d="M1526.548,945.954c-3.412-.141-6.189-1.754-8.035-4.625l-2.02-3.142c-.543-.845,3.526-1.998,4.04-1.229l6.015,8.996Z" fill="#12495f"/><path d="M1067.371,1054.108c-2.187,1.583-6.011-1.609-6.197-4.344-.131-1.932,1.936-5.109,4.006-6.094l2.191,10.439Z" fill="#12495f"/><path d="M1507.291,975.468c-.753.798-7.116.977-7.344-.92l-.965-8.029,8.309,8.949Z" fill="#12495f"/><path d="M1064.881,1055.845l-4.829,10.45c-.963-3.147-1.289-4.532-1.295-6.248-.006-1.965,2.031-3.826,6.123-4.202Z" fill="#12495f"/><path d="M1643.981,909.472l-9.051,2.873c.531-1.296,2.941-4.082,4.315-4.768l3.818-1.905c.999-.498,2.097,3.425.918,3.8Z" fill="#12495f"/><path d="M1984.391,971.39c-2.03,0-4.92-.765-5.578-2.018-1.029-1.96-1.388-3.908-1.335-6.707l6.913,8.725Z" fill="#12495f"/><path d="M1697.81,911.037c-1.363.799-7.161-.2-7.166-1.61,1.475-2.947,6.517-1.532,7.166,1.61Z" fill="#12495f"/><path d="M1302.192,979.184l-6.951,1.399,1.24-2.791c.305-.687,2.438-.002,5.711,1.391Z" fill="#12495f"/><polygon points="1428.573 1487.087 1421.631 1485.359 1421.755 1483.223 1428.039 1484.472 1428.573 1487.087" fill="#12495f"/><rect x="1623.71" y="1478.248" width="3.074" height="6.049" transform="translate(-573.6629 1501.061) rotate(-42.8621)" fill="#12495f"/><rect x="1068.26" y="1043.751" width="4.749" height="3.717" transform="translate(-17.491 18.215) rotate(-.967)" fill="#12495f"/><rect x="1755.195" y="1690.229" width="4.458" height="3.849" transform="translate(-290.9722 3017.2931) rotate(-76.8155)" fill="#12495f"/><rect x="1983.792" y="974.818" width="3.025" height="5.903" transform="translate(-173.2538 1465.7173) rotate(-38.9582)" fill="#12495f"/><path d="M1191.8,918.068c.189-.75,4.148-1.314,3.9-.582l-1.09,3.213c-.328.966-3.062-1.63-2.81-2.631Z" fill="#12495f"/><path d="M1992.601,985.477l-2.091-.496c-.698-.165-1.981-2.371-1.316-2.687l3.924-1.869-.516,5.052Z" fill="#12495f"/><path d="M1001.803,1243.559c-.031-.54,2.584-.031,2.568.506l-.078,2.694c-.016.536-2.228,1.313-2.259.777l-.231-3.977Z" fill="#12495f"/><path d="M1130.234,756.381c-1.961,3.334-14.111,5.369-20.707,5.252,7.113-4.115,12.562-5.944,20.707-5.252Z" fill="#12495f"/><circle cx="1104.275" cy="763.373" r="1.99" fill="#12495f"/><path d="M2022.096,1711.449c.426,1.912-4.213,1.964-4.477.132-.144-.998,4.258-1.118,4.477-.132Z" fill="#12495f"/><path d="M2018.565,1240.906c-2.284-.918-3.759-3.994-3.069-5.337.629-.335,3.735.014,3.635.814l-.565,4.523Z" fill="#12495f"/><path d="M947.296,1238.738l-7.925-8.627,4.534-11.664c1.662-4.274,7.577-9.555,8.6-13.716,1.452-5.904,2.742-8.437,6.914-11.908l6.719-5.592-3.924,14.189c-.898,3.247-3.936,8.087-3.944,11.041l-.034,11.87c-5.904,3.159-9.007,6.974-10.94,14.406Z" fill="#12495f"/><path d="M990.346,1264.617c-7.886,3.28-8.593,3.864-11.465,11.07-2.328-1.22-7.135-4.145-9.123-6.107-2.615-7.261-.318-16.679,5.454-21.412l8.405,8.96,6.729,7.488Z" fill="#12495f"/><path d="M1132.294,1332.673c-3.13,1.254-7.948,2.485-10.787,1.663-2.622-.759-6.201-4.713-6.851-7.184,2.61,1.148,6.234,3.351,7.932,2.655l16.874-6.92c1.291.285,1.841,6.178.278,6.804l-7.445,2.982Z" fill="#12495f"/><path d="M912.266,1209.708c.497,1.083,1.259,4.593.099,5.487s-4.57,2.119-5.903,1.512c-1.556-.707-4.024-4.458-3.762-4.816l10.514-5.538c.55-.29,3.444-.347,3.28.193l-.724,2.392c-.243.804-1.328.646-3.505.77Z" fill="#12495f"/><path d="M1059.3,1310.939l-7.843-4.881,1.391-3.814c5.112,3.989,10.013,4.839,16.236,3.239-.637,2.35-7.469,6.896-9.783,5.455Z" fill="#12495f"/><path d="M1051.522,1301.413c-.106.496-2.891,3.232-3.642,2.576l-3.76-3.29c.184-.347,1.697-2.125,2.293-1.828l5.109,2.543Z" fill="#12495f"/><rect x="1067.674" y="1280.524" width="2.614" height="6.534" transform="translate(-351.114 403.921) rotate(-18.435)" fill="#12495f"/><path d="M2206.627,1953.935c-49.858,58.476-141.045,104.465-212.242,124.781-188.278,53.727-396.303,26.622-575.791-50.614-215.816-92.867-420.694-135.574-653.036-73.618l-51.022-79.807-57.478-88.15c219.118-61.673,463.165-23.475,665.32,79.695l100.235,51.155,147.722,67.152c161.703,60.061,337.073,65.456,503.91,22.413,47.694-12.305,86.018-31.346,132.382-53.007Z" fill="#f93"/><path d="M2026.458,2149.742c-34.399,33.454-102.126,81.943-138.369,96.503l-120.769,48.519c-323.925,101.365-680.006,22.085-931.502-214.41,100.439-20.683,197.168-20.978,296.736-5.62,95.842,14.783,182.282,47.976,272.53,82.212,108.129,41.019,219.271,60.464,334.714,58.301,84.091-1.575,162.801-20.591,241.375-46.774l45.284-18.731Z" fill="#138808"/><path d="M419.548,1555.107c0-604.786,472.112-1095.061,1054.492-1095.061s1054.492,490.276,1054.492,1095.061" fill="none"/><path d="M419.486,1541.873l-119.99-3.22.957-35.672,119.99,3.219-.957,35.673Z" fill="#12495f"/><path d="M420.363,1481.564l-119.236-13.806,3.72-32.131,57.761-35.538c1.121-.569,2.535-1.387,4.241-2.45,1.706-1.063,3.468-2.083,5.28-3.065,1.814-.978,3.397-1.74,4.75-2.286l-.053-1.056c-2.446-.142-4.824-.349-7.14-.617-2.313-.268-4.279-.496-5.901-.684l-52.937-6.129,3.84-33.168,119.237,13.806-3.696,31.924-60.083,37.37c-2.01,1.169-4.162,2.285-6.456,3.349-2.292,1.067-4.303,1.99-6.037,2.767l-.12,1.037c1.985.092,4.016.255,6.099.496,2.083.241,3.935.456,5.554.643l55.019,6.371-3.84,33.167Z" fill="#12495f"/><path d="M438.211,1341.183l-116.637-28.353,12.915-53.128c3.352-13.789,8.204-24.744,14.552-32.865,6.352-8.12,14.356-13.439,24.019-15.959,9.664-2.517,21.229-2.141,34.697,1.133,13.243,3.219,23.626,8.213,31.151,14.981s12.274,15.225,14.242,25.368c1.97,10.143,1.278,22.109-2.074,35.898l-12.865,52.925ZM423.38,1300.854l4.19-17.236c1.15-4.73,1.55-8.965,1.2-12.701-.351-3.736-1.462-7.047-3.338-9.939-1.874-2.889-4.549-5.327-8.021-7.319-3.472-1.988-7.696-3.589-12.678-4.8l-10.356-2.518c-4.979-1.21-9.496-1.734-13.552-1.576-4.054.162-7.635,1.08-10.74,2.758-3.106,1.681-5.698,4.091-7.782,7.235-2.083,3.145-3.7,7.083-4.85,11.814l-4.19,17.236,70.118,17.045Z" fill="#12495f"/><path d="M473.417,1208.173l-113.675-38.547,11.46-33.794,113.675,38.547-11.46,33.794Z" fill="#12495f"/><path d="M487.172,1162.325l-91.231-90.62,17.93-40.673,128.522,6.027-15.32,34.753-22.451-1.915-19.277,43.728,16.559,15.282-14.731,33.417ZM467.188,1097.64l13.384-30.362-28.72-2.854c-1.232-.087-2.802-.209-4.708-.365-1.904-.155-3.929-.399-6.071-.738-2.144-.335-4.272-.629-6.391-.879-2.116-.249-4.089-.47-5.912-.667l-.589,1.337c1.801,1.403,3.759,3.025,5.873,4.87,2.117,1.845,4.216,3.647,6.306,5.403,2.089,1.758,3.9,3.355,5.432,4.789l21.396,19.467Z" fill="#12495f"/><path d="M581.675,969.164l-99.479-67.17,59.09-87.513,19.838,13.395-39.121,57.938,19.259,13.004,33.866-50.155,19.548,13.199-33.866,50.156,20.997,14.177,39.822-58.976,19.838,13.395-59.791,88.55Z" fill="#12495f"/><path d="M692.363,823.291c-8.03,9.243-16.15,16.101-24.359,20.58-8.208,4.479-16.44,6.269-24.685,5.37-8.247-.897-16.413-4.86-24.504-11.889l-57.245-49.73,23.403-26.939,57.376,49.845c5.276,4.583,10.619,6.737,16.028,6.46,5.411-.275,10.667-3.354,15.778-9.237,5.201-5.986,7.606-11.728,7.214-17.229-.392-5.498-3.225-10.541-8.5-15.125l-57.376-49.845,23.266-26.782,57.245,49.73c8.091,7.029,13.178,14.536,15.266,22.522,2.086,7.989,1.49,16.36-1.797,25.114-3.287,8.754-8.99,17.808-17.109,27.155Z" fill="#12495f"/><path d="M745.724,761.145l-79.874-89.6,53.586-47.77c7.891-7.034,15.418-11.557,22.572-13.567,7.155-2.009,13.805-1.968,19.954.118,6.148,2.09,11.547,5.74,16.197,10.957,4.961,5.565,8.075,11.724,9.34,18.474,1.267,6.752.478,13.658-2.362,20.714l51.559,19.577-28.974,25.829-43.674-17.945-19.939,17.774,28.252,31.693-26.637,23.746ZM728.994,688.752l22.275-19.858c3.739-3.333,5.632-7.01,5.681-11.033.049-4.022-1.555-7.859-4.81-11.511-2.169-2.433-4.454-4.104-6.847-5.015-2.395-.908-4.882-1.032-7.46-.372-2.581.662-5.169,2.15-7.764,4.463l-22.12,19.719,21.044,23.606Z" fill="#12495f"/><path d="M837.557,679.138l-29.82-125.083,36.665-25.13,106.074,72.818-31.328,21.473-18.076-13.453-39.418,27.017,6.026,21.712-30.123,20.646ZM854.639,613.627l27.369-18.759-22.91-17.553c-1.002-.724-2.272-1.654-3.81-2.791-1.537-1.134-3.129-2.409-4.772-3.825-1.646-1.414-3.301-2.785-4.97-4.113-1.668-1.326-3.229-2.553-4.674-3.681l-1.205.826c.792,2.142,1.602,4.552,2.427,7.233.827,2.683,1.663,5.321,2.515,7.914.85,2.595,1.548,4.906,2.095,6.931l7.934,27.818Z" fill="#12495f"/><path d="M1008.247,574.752c-7.172,3.7-14.161,6.617-20.963,8.75-6.806,2.135-13.256,3.137-19.35,3.003-6.095-.13-11.639-1.694-16.627-4.693-4.99-2.995-9.167-7.755-12.531-14.277-.213-.413-.453-.878-.721-1.397-.267-.517-.446-1.014-.536-1.493l30.416-15.69c.214.415.409.87.588,1.368.176.499.375.955.588,1.368,1.71,3.314,3.875,5.54,6.497,6.675,2.62,1.139,5.66,1.341,9.117.604,3.457-.732,7.225-2.154,11.305-4.259,2.225-1.148,4.228-2.344,6.013-3.593,1.783-1.245,3.312-2.526,4.592-3.843,1.278-1.313,2.261-2.672,2.946-4.076.686-1.401,1.026-2.79,1.021-4.164s-.379-2.784-1.128-4.235c-1.282-2.484-3.282-4.008-5.999-4.573-2.719-.563-5.945-.601-9.687-.115-3.74.489-7.83,1.287-12.266,2.396-4.439,1.11-9.069,2.221-13.895,3.334-4.826,1.113-9.619,1.915-14.376,2.403-4.759.489-9.357.373-13.8-.352-4.444-.721-8.485-2.338-12.13-4.851-3.643-2.51-6.719-6.198-9.23-11.064-2.937-5.692-4.181-11.212-3.728-16.557.45-5.344,2.265-10.474,5.445-15.391,3.178-4.914,7.396-9.483,12.655-13.705,5.258-4.217,11.163-8.02,17.717-11.401,6.552-3.38,12.999-5.983,19.334-7.812,6.338-1.826,12.322-2.587,17.959-2.285,5.635.306,10.703,1.787,15.207,4.443,4.502,2.66,8.169,6.731,10.999,12.216l1.362,2.64-30.044,15.5-.721-1.397c-1.228-2.38-2.916-4.13-5.059-5.254-2.145-1.121-4.72-1.562-7.727-1.322-3.008.243-6.429,1.351-10.259,3.327-3.588,1.851-6.489,3.808-8.712,5.871-2.222,2.065-3.635,4.105-4.24,6.119-.604,2.017-.426,3.955.536,5.818,1.229,2.382,3.184,3.896,5.866,4.543,2.683.649,5.909.687,9.687.115,3.774-.571,7.867-1.435,12.279-2.599,4.41-1.16,9.029-2.298,13.855-3.412,4.826-1.113,9.604-1.938,14.336-2.48,4.73-.539,9.302-.474,13.72.196,4.416.671,8.407,2.185,11.97,4.54,3.564,2.357,6.574,5.916,9.03,10.676,4.219,8.179,5.56,15.941,4.028,23.284-1.534,7.347-5.395,14.122-11.586,20.329-6.19,6.207-14.107,11.799-23.751,16.774Z" fill="#12495f"/><path d="M1073.568,541.609l-45.168-111.21,33.062-13.429,45.168,111.21-33.062,13.428Z" fill="#12495f"/><path d="M1116.984,521.969l9.9-128.207,42.597-12.7,78.693,101.792-36.397,10.852-13.09-18.341-45.796,13.654-.909,22.515-34.997,10.434ZM1153.3,464.832l31.798-9.48-16.437-23.724c-.732-.995-1.657-2.27-2.773-3.822-1.116-1.551-2.242-3.251-3.373-5.103-1.133-1.85-2.29-3.662-3.472-5.437-1.182-1.773-2.292-3.419-3.322-4.935l-1.4.417c.099,2.281.132,4.824.097,7.628-.034,2.808-.046,5.575-.028,8.304.014,2.73-.028,5.145-.128,7.24l-.962,28.911Z" fill="#12495f"/><path d="M1324.733,469.384l-10.907-119.537,71.49-6.523c10.527-.96,19.268-.119,26.214,2.521,6.947,2.642,12.268,6.63,15.97,11.964,3.699,5.337,5.868,11.483,6.502,18.443.678,7.425-.483,14.228-3.481,20.406-2.999,6.181-7.741,11.263-14.22,15.246l29.799,46.406-38.654,3.527-24.433-40.404-26.601,2.427,3.858,42.282-35.538,3.243ZM1354.349,401.24l29.718-2.712c4.988-.455,8.698-2.285,11.129-5.489s3.425-7.243,2.981-12.115c-.296-3.246-1.139-5.949-2.521-8.104-1.385-2.154-3.31-3.733-5.775-4.736-2.469-1.003-5.434-1.347-8.896-1.031l-29.51,2.693,2.874,31.494Z" fill="#12495f"/><path d="M1460.056,458.896l4.26-119.958,105.527,3.748-.85,23.921-69.865-2.481-.824,23.223,60.48,2.148-.837,23.572-60.48-2.147-.899,25.318,71.116,2.525-.85,23.922-106.778-3.792Z" fill="#12495f"/><path d="M1636.973,475.159c-7.97-1.271-15.328-3.062-22.071-5.376-6.746-2.314-12.536-5.33-17.365-9.049-4.832-3.717-8.37-8.262-10.611-13.634-2.244-5.37-2.787-11.679-1.632-18.926.073-.458.155-.976.248-1.553.091-.574.241-1.081.453-1.52l33.798,5.388c-.074.461-.187.943-.337,1.45-.153.506-.264.992-.337,1.45-.587,3.683-.163,6.758,1.276,9.227,1.436,2.471,3.764,4.435,6.985,5.891,3.218,1.458,7.096,2.547,11.63,3.27,2.473.394,4.795.618,6.973.669,2.174.054,4.165-.071,5.977-.374,1.808-.301,3.404-.812,4.788-1.537,1.383-.722,2.48-1.639,3.291-2.749.811-1.109,1.344-2.467,1.601-4.079.44-2.761-.268-5.174-2.121-7.238-1.856-2.065-4.433-4.008-7.734-5.833-3.302-1.823-7.069-3.604-11.3-5.34-4.233-1.736-8.62-3.586-13.168-5.549-4.547-1.963-8.883-4.158-13.003-6.584-4.124-2.426-7.759-5.245-10.907-8.462-3.153-3.214-5.449-6.912-6.896-11.096-1.447-4.181-1.739-8.974-.877-14.382,1.008-6.325,3.277-11.508,6.81-15.545,3.529-4.038,8.031-7.093,13.507-9.17,5.472-2.075,11.577-3.255,18.315-3.538,6.734-.281,13.743.156,21.027,1.317,7.28,1.161,14.016,2.884,20.202,5.167,6.187,2.286,11.458,5.218,15.819,8.803,4.358,3.586,7.562,7.782,9.615,12.59,2.05,4.811,2.591,10.263,1.619,16.358l-.468,2.934-33.385-5.322.247-1.553c.422-2.645.1-5.054-.961-7.23-1.062-2.174-2.876-4.055-5.439-5.645-2.566-1.586-5.979-2.722-10.235-3.4-3.986-.636-7.483-.778-10.496-.435-3.014.346-5.361,1.152-7.042,2.416-1.681,1.267-2.687,2.934-3.017,5.004-.422,2.647.256,5.025,2.032,7.136,1.776,2.113,4.353,4.056,7.734,5.833,3.379,1.777,7.188,3.506,11.431,5.184,4.239,1.679,8.634,3.5,13.182,5.463,4.547,1.963,8.884,4.131,13.017,6.498,4.13,2.37,7.773,5.132,10.936,8.29,3.158,3.157,5.476,6.742,6.95,10.75,1.474,4.011,1.789,8.662.945,13.951-1.448,9.088-4.969,16.135-10.555,21.141-5.589,5.009-12.715,8.177-21.379,9.508-8.665,1.331-18.356,1.144-29.072-.565Z" fill="#12495f"/><path d="M1708.77,485.975l33.337-115.311,101.44,29.327-6.648,22.995-67.158-19.417-6.454,22.324,58.137,16.808-6.551,22.659-58.138-16.808-7.036,24.338,68.362,19.764-6.648,22.995-102.643-29.675Z" fill="#12495f"/><path d="M1817.139,516.897l90.045-91.798,40.785,17.674-5.221,128.557-34.849-15.102,1.774-22.462-43.849-19.002-15.178,16.654-33.509-14.521ZM1881.697,496.507l30.445,13.193,2.674-28.737c.079-1.233.191-2.803.335-4.71.144-1.905.375-3.932.7-6.076.322-2.146.603-4.276.839-6.396.235-2.118.444-4.092.63-5.916l-1.34-.581c-1.393,1.81-3.002,3.778-4.833,5.903-1.832,2.128-3.621,4.239-5.363,6.34-1.745,2.1-3.33,3.921-4.755,5.461l-19.332,21.519Z" fill="#12495f"/><path d="M1951.904,576.977l61.661-102.985,61.592,36.877c9.069,5.43,15.633,11.263,19.688,17.49,4.053,6.229,6,12.588,5.846,19.079-.159,6.491-2.03,12.734-5.62,18.73-3.83,6.397-8.778,11.208-14.843,14.431-6.065,3.225-12.893,4.534-20.475,3.931l-3.287,55.052-33.303-19.939,4.085-47.04-22.918-13.722-21.81,36.427-30.617-18.331ZM2015.999,539.394l25.604,15.33c4.297,2.573,8.372,3.282,12.226,2.127s7.037-3.831,9.55-8.028c1.675-2.797,2.588-5.477,2.742-8.032.15-2.557-.474-4.967-1.873-7.231-1.403-2.265-3.596-4.291-6.578-6.076l-25.424-15.223-16.246,27.133Z" fill="#12495f"/><path d="M2112.111,685.871c-11.141-8.79-19.064-17.896-23.767-27.319-4.706-9.423-6.065-19.213-4.077-29.367,1.984-10.153,7.344-20.763,16.074-31.829,12.986-16.46,26.949-25.287,41.893-26.481,14.938-1.195,30.768,4.801,47.479,17.985,9.175,7.239,16.146,14.964,20.919,23.181,4.77,8.215,6.793,16.71,6.072,25.489-.724,8.776-4.547,17.555-11.473,26.334l-27.196-21.457c3.317-4.205,5.412-8.376,6.283-12.513.869-4.134.497-8.1-1.114-11.896-1.615-3.796-4.55-7.373-8.81-10.734-5.135-4.051-10.096-6.407-14.888-7.072-4.792-.665-9.423.32-13.891,2.951-4.469,2.632-8.867,6.691-13.196,12.177l-7.358,9.328c-4.329,5.487-7.211,10.708-8.637,15.664-1.432,4.957-1.319,9.642.335,14.063,1.651,4.418,5.043,8.652,10.179,12.704,4.477,3.532,8.812,5.729,13.008,6.591,4.193.86,8.207.432,12.048-1.289,3.836-1.72,7.416-4.682,10.735-8.89l26.377,20.811c-6.855,8.688-14.402,14.38-22.644,17.076-8.242,2.698-16.959,2.681-26.147-.044-9.191-2.728-18.594-7.882-28.204-15.464Z" fill="#12495f"/><path d="M2173.212,733.169l85.87-83.871,24.935,25.529-33.373,32.596,32.37,33.142,33.373-32.596,24.935,25.528-85.87,83.871-24.934-25.528,34.873-34.062-32.371-33.142-34.873,34.062-24.935-25.529Z" fill="#12495f"/><path d="M2331.465,915.922l101.384-64.26,52.061,82.137-20.217,12.815-32.958-51.997-22.578,14.312,28.6,45.123-20.07,12.721-28.6-45.123-38.517,24.414-19.104-30.141Z" fill="#12495f"/><path d="M2416.702,1068.636c-6.135-12.796-9.332-24.65-9.586-35.557-.259-10.908,2.636-20.703,8.68-29.386,6.04-8.682,15.417-16.069,28.127-22.163,12.708-6.092,24.312-8.762,34.814-8.011,10.5.752,19.922,4.643,28.267,11.675,8.342,7.03,15.583,16.945,21.718,29.741,6.193,12.92,9.417,24.836,9.676,35.745.254,10.907-2.627,20.659-8.646,29.254-6.023,8.593-15.387,15.938-28.095,22.03-12.71,6.093-24.327,8.806-34.848,8.144-10.524-.665-19.959-4.513-28.301-11.543-8.345-7.032-15.613-17.01-21.807-29.929ZM2438.286,1058.289c2.225,4.64,4.818,8.372,7.788,11.193,2.966,2.82,6.225,4.769,9.776,5.843,3.55,1.076,7.409,1.308,11.574.7s8.505-1.994,13.021-4.16l10.714-5.136c4.621-2.215,8.474-4.756,11.556-7.623,3.083-2.866,5.316-6.02,6.703-9.461,1.384-3.441,1.906-7.202,1.567-11.281-.343-4.081-1.625-8.442-3.85-13.082-2.226-4.643-4.822-8.374-7.788-11.193-2.969-2.822-6.228-4.768-9.776-5.843-3.552-1.074-7.409-1.308-11.573-.7-4.165.608-8.56,2.021-13.18,4.235l-10.714,5.136c-4.518,2.166-8.316,4.681-11.398,7.547-3.083,2.866-5.318,6.021-6.702,9.461-1.387,3.442-1.91,7.2-1.567,11.281.339,4.079,1.623,8.439,3.849,13.082Z" fill="#12495f"/><path d="M2453.753,1145.392l113.938-37.761,22.584,68.142c3.325,10.035,4.489,18.738,3.496,26.102-.996,7.365-3.672,13.453-8.026,18.27-4.357,4.814-9.851,8.321-16.484,10.52-7.077,2.346-13.966,2.76-20.664,1.242-6.7-1.517-12.727-4.981-18.076-10.388l-38.429,39.557-12.211-36.845,33.803-32.967-8.403-25.355-40.302,13.356-11.226-33.873ZM2526.841,1158.763l9.388,28.327c1.576,4.754,4.2,7.951,7.873,9.592,3.673,1.641,7.831,1.691,12.475.152,3.095-1.025,5.535-2.459,7.32-4.294,1.783-1.838,2.884-4.072,3.301-6.7.417-2.632.078-5.598-1.016-8.897l-9.322-28.128-30.019,9.949Z" fill="#12495f"/><path d="M2504.269,1330.89c-2.408-12.005-2.874-22.623-1.402-31.858s5.084-16.844,10.835-22.82c5.75-5.979,13.877-10.021,24.386-12.13l74.347-14.918,7.021,34.988-74.518,14.953c-6.853,1.375-11.823,4.288-14.909,8.738-3.088,4.451-3.864,10.493-2.331,18.134,1.561,7.775,4.635,13.188,9.229,16.24,4.591,3.049,10.314,3.89,17.167,2.515l74.519-14.953,6.979,34.783-74.347,14.918c-10.509,2.109-19.56,1.547-27.157-1.681-7.599-3.231-13.859-8.819-18.78-16.771-4.92-7.952-8.602-17.999-11.037-30.138Z" fill="#12495f"/><path d="M2521.851,1410.944l119.807-7.367,3.138,51.031-52.416,18.695c-1.944.675-4.431,1.527-7.458,2.549-3.03,1.023-6.176,2.052-9.438,3.089-3.263,1.037-6.21,1.982-8.841,2.843l.103,1.667c2.118.288,4.684.722,7.695,1.304,3.011.579,6.169,1.188,9.477,1.821,3.305.633,6.434,1.206,9.384,1.723l54.312,12.132,3.061,49.782-119.807,7.366-2.101-34.159,51.62-3.174c4.648-.287,9.305-.504,13.964-.65,4.657-.148,8.852-.266,12.582-.355,3.728-.092,6.522-.191,8.384-.307l-.103-1.666c-1.646-.18-3.916-.562-6.81-1.148-2.897-.59-5.852-1.209-8.867-1.859-3.016-.651-5.651-1.257-7.901-1.814l-64.457-14.854-1.741-28.328,62.139-22.847c1.94-.678,4.255-1.483,6.94-2.413,2.684-.933,5.459-1.835,8.324-2.707,2.861-.875,5.32-1.722,7.37-2.544l-.09-1.458c-2.781.308-6.146.656-10.089,1.039-3.945.38-8.067.738-12.362,1.074-4.299.333-8.364.619-12.201.854l-51.62,3.174-1.997-32.494Z" fill="#12495f"/><line x1="78.189" y1="1537.513" x2="3050.383" y2="1542.84" fill="none"/><rect x="616.472" y="2494.364" width="1715.137" height="319.591" fill="none"/><path d="M1081.593,2730.366v-223.942h66.577v223.942h-66.577Z" fill="#12495f"/><path d="M1199.171,2730.366v-223.942h197.004v44.658h-130.428v43.354h112.908v44.006h-112.908v47.266h132.764v44.658h-199.34Z" fill="#12495f"/><path d="M1439.389,2730.366v-223.942h133.931c19.723,0,35.819,3.046,48.277,9.127,12.459,6.087,21.669,14.399,27.644,24.938,5.968,10.543,8.954,22.329,8.954,35.367,0,13.91-3.309,26.354-9.928,37.324-6.619,10.976-16.291,19.614-29.006,25.914l47.499,91.272h-72.416l-38.544-79.211h-49.836v79.211h-66.576ZM1505.965,2608.779h55.676c9.344,0,16.547-2.771,21.607-8.312,5.062-5.542,7.593-12.876,7.593-22.003,0-6.082-1.107-11.246-3.31-15.484-2.208-4.237-5.518-7.497-9.928-9.778-4.417-2.282-9.867-3.423-16.353-3.423h-55.286v59.001Z" fill="#12495f"/><path d="M1699.072,2730.366v-223.942h181.431v44.658h-114.854v49.873h99.671v44.333h-99.671v85.078h-66.576Z" fill="#12495f"/></svg>