<svg xmlns="http://www.w3.org/2000/svg" xmlns:xlink="http://www.w3.org/1999/xlink" width="2000" zoomAndPan="magnify" viewBox="0 0 1500 1499.999933" height="2000" preserveAspectRatio="xMidYMid meet" version="1.0"><defs><g/><clipPath id="be16b74633"><path d="M 171.414062 542 L 402 542 L 402 901.539062 L 171.414062 901.539062 Z M 171.414062 542 " clip-rule="nonzero"/></clipPath><clipPath id="464fbad252"><path d="M 303 731 L 565.914062 731 L 565.914062 901.539062 L 303 901.539062 Z M 303 731 " clip-rule="nonzero"/></clipPath><clipPath id="bd1f5d9abb"><path d="M 384 803 L 485 803 L 485 901.539062 L 384 901.539062 Z M 384 803 " clip-rule="nonzero"/></clipPath><clipPath id="40821f7bf1"><path d="M 384.085938 436.128906 L 837.835938 436.128906 L 837.835938 547 L 384.085938 547 Z M 384.085938 436.128906 " clip-rule="nonzero"/></clipPath><clipPath id="fbf9ff50a1"><path d="M 674.402344 574 L 957 574 L 957 933.425781 L 674.402344 933.425781 Z M 674.402344 574 " clip-rule="nonzero"/></clipPath><clipPath id="f4cfd246e0"><path d="M 718 483 L 1000.652344 483 L 1000.652344 843 L 718 843 Z M 718 483 " clip-rule="nonzero"/></clipPath><clipPath id="ac43b59384"><path d="M 974.050781 479.675781 L 1328.800781 479.675781 L 1328.800781 841 L 974.050781 841 Z M 974.050781 479.675781 " clip-rule="nonzero"/></clipPath><clipPath id="022aa99822"><rect x="0" width="1200" y="0" height="124"/></clipPath></defs><g clip-path="url(#be16b74633)"><path fill="#ffffff" d="M 228.914062 901.15625 C 229.808594 900.460938 230.472656 899.429688 231.070312 898.046875 C 259.238281 832.886719 287.492188 767.757812 315.738281 702.628906 C 319.46875 694.011719 323.222656 685.40625 327.371094 675.875 C 328.5 677.703125 329.152344 678.539062 329.566406 679.476562 C 333.613281 688.59375 337.707031 697.699219 341.613281 706.871094 C 342.863281 709.820312 344.636719 711.039062 347.945312 711.007812 C 363.523438 710.875 379.09375 710.996094 394.675781 710.960938 C 396.71875 710.960938 398.765625 710.636719 401.757812 710.386719 C 377.332031 654.003906 353.230469 598.398438 329.144531 542.777344 C 328.652344 542.667969 328.164062 542.550781 327.683594 542.441406 C 275.65625 661.882812 223.617188 781.324219 171.414062 901.15625 Z M 228.914062 901.15625 " fill-opacity="1" fill-rule="nonzero"/></g><g clip-path="url(#464fbad252)"><path fill="#ffffff" d="M 450.054688 782.902344 C 454.808594 782.878906 457.3125 784.25 459.257812 788.800781 C 474.761719 825.074219 490.558594 861.207031 506.195312 897.425781 C 506.957031 899.199219 507.828125 900.429688 509.132812 901.15625 L 566.210938 901.15625 C 565.546875 899.394531 565.199219 898.382812 564.785156 897.40625 C 557.148438 879.667969 549.519531 861.933594 541.847656 844.210938 C 526.246094 808.164062 510.625 772.121094 495.042969 736.0625 C 493.8125 733.210938 492.5625 731.265625 488.722656 731.277344 C 435.769531 731.429688 382.816406 731.394531 329.851562 731.332031 C 326.804688 731.332031 325.183594 732.253906 323.964844 735.191406 C 318.882812 747.433594 313.507812 759.554688 308.265625 771.738281 C 306.761719 775.230469 305.328125 778.757812 303.554688 783.011719 C 306.816406 783.011719 309.089844 783.011719 311.363281 783.011719 C 357.582031 783 403.8125 783.054688 450.054688 782.902344 Z M 450.054688 782.902344 " fill-opacity="1" fill-rule="nonzero"/></g><path fill="#ffffff" d="M 484.542969 710.667969 C 480.550781 710.667969 477.972656 710.667969 475.394531 710.667969 C 460.476562 710.667969 445.558594 710.539062 430.644531 710.746094 C 426.792969 710.800781 424.832031 709.503906 423.308594 705.980469 C 400.789062 654.039062 378.136719 602.160156 355.515625 550.261719 C 350.804688 539.460938 346.027344 528.6875 341.480469 517.820312 C 340.816406 516.230469 340.621094 513.914062 341.273438 512.390625 C 350 491.914062 358.898438 471.523438 367.800781 451.125 C 368.214844 450.164062 369.082031 449.40625 370.140625 448.023438 C 408.253906 535.53125 446.113281 622.464844 484.542969 710.667969 Z M 484.542969 710.667969 " fill-opacity="1" fill-rule="nonzero"/><g clip-path="url(#bd1f5d9abb)"><path fill="#ffffff" d="M 425.792969 898.644531 C 426.300781 899.832031 426.910156 900.613281 427.640625 901.15625 L 484.554688 901.15625 C 484.207031 900.15625 484 899.472656 483.726562 898.851562 C 470.421875 868.082031 457.148438 837.300781 443.644531 806.621094 C 442.980469 805.121094 440.21875 803.703125 438.410156 803.671875 C 423.996094 803.433594 409.570312 803.542969 395.140625 803.542969 C 391.910156 803.542969 388.679688 803.542969 384.816406 803.542969 C 385.25 805.25 385.328125 805.902344 385.589844 806.480469 C 398.992188 837.183594 412.472656 867.875 425.792969 898.644531 Z M 425.792969 898.644531 " fill-opacity="1" fill-rule="nonzero"/></g><path fill="#ffffff" d="M 580.867188 583.933594 L 649.726562 583.933594 L 649.726562 785.613281 L 615.339844 840.773438 L 580.867188 785.613281 Z M 580.867188 583.933594 " fill-opacity="1" fill-rule="nonzero"/><g clip-path="url(#40821f7bf1)"><path fill="#ffffff" d="M 384.085938 441.226562 L 609.445312 487.496094 L 837.707031 436.328125 L 809.128906 499.289062 L 610.894531 546.554688 L 410.667969 496.386719 Z M 384.085938 441.226562 " fill-opacity="1" fill-rule="nonzero"/></g><g clip-path="url(#fbf9ff50a1)"><path fill="#ffffff" d="M 910.144531 844.027344 C 910.144531 799.445312 910.144531 755.546875 910.144531 711.636719 C 909.578125 711.421875 909.015625 711.207031 908.449219 710.984375 C 885.105469 740.296875 861.75 769.597656 837.558594 799.972656 C 828.949219 789.246094 820.699219 778.976562 811.71875 767.792969 C 767.683594 823.128906 723.996094 878.011719 679.949219 933.355469 C 677.941406 931.75 676.332031 930.460938 674.421875 928.929688 C 768.179688 811.058594 861.585938 693.617188 956.179688 574.683594 C 956.179688 665.59375 956.179688 754.589844 956.179688 844.027344 C 941.066406 844.027344 926.34375 844.027344 910.144531 844.027344 Z M 910.144531 844.027344 " fill-opacity="1" fill-rule="nonzero"/></g><g clip-path="url(#f4cfd246e0)"><path fill="#ffffff" d="M 718.957031 575.910156 C 753.171875 618.902344 786.316406 660.558594 820.199219 703.144531 C 822.777344 700.050781 825.039062 697.417969 827.191406 694.707031 C 881.535156 626.351562 935.859375 557.960938 990.289062 489.664062 C 992.6875 486.660156 994.960938 479.714844 1000.957031 487.625 C 932.652344 573.503906 864.296875 659.449219 795.152344 746.390625 C 785.515625 734.453125 776.339844 723.074219 766.09375 710.386719 C 765.703125 713.722656 765.28125 715.632812 765.28125 717.554688 C 765.242188 737.371094 765.488281 757.195312 765.078125 777 C 764.992188 781.074219 763.460938 785.8125 760.992188 789.019531 C 747.625 806.484375 733.746094 823.570312 718.945312 842.164062 C 718.957031 752.933594 718.957031 665.386719 718.957031 575.910156 Z M 718.957031 575.910156 " fill-opacity="1" fill-rule="nonzero"/></g><g clip-path="url(#ac43b59384)"><path fill="#ffffff" d="M 1073.839844 574.011719 L 974.125 840.996094 L 1066.460938 840.996094 L 1089.09375 776.925781 L 1114.921875 699.554688 Z M 1193.644531 479.683594 L 1109.6875 479.683594 L 1150.617188 597.695312 L 1150.667969 597.546875 L 1211.292969 776.925781 L 1234.378906 840.996094 L 1328.503906 840.996094 L 1193.644531 479.683594 " fill-opacity="1" fill-rule="nonzero"/></g><g transform="matrix(1, 0, 0, 1, 150, 949)"><g clip-path="url(#022aa99822)"><g fill="#ffffff" fill-opacity="1"><g transform="translate(0.00002043, 87.423942)"><g><path d="M 55.40625 0 L 36.8125 0 L 27.609375 -27.78125 L 22.921875 -27.78125 L 22.921875 0 L 4.421875 0 L 4.421875 -64.875 L 27.609375 -64.875 C 31.085938 -64.875 34.394531 -64.578125 37.53125 -63.984375 C 40.59375 -63.335938 43.273438 -62.304688 45.578125 -60.890625 C 47.878906 -59.410156 49.707031 -57.492188 51.0625 -55.140625 C 52.414062 -52.773438 53.09375 -49.851562 53.09375 -46.375 C 53.09375 -42.539062 52.296875 -39.414062 50.703125 -37 C 49.117188 -34.519531 46.96875 -32.570312 44.25 -31.15625 Z M 22.921875 -37.078125 C 24.867188 -37.078125 26.609375 -37.34375 28.140625 -37.875 C 29.617188 -38.40625 30.859375 -39.113281 31.859375 -40 C 32.804688 -40.820312 33.546875 -41.796875 34.078125 -42.921875 C 34.546875 -43.984375 34.78125 -45.101562 34.78125 -46.28125 C 34.78125 -47.46875 34.546875 -48.617188 34.078125 -49.734375 C 33.546875 -50.859375 32.804688 -51.863281 31.859375 -52.75 C 30.859375 -53.570312 29.617188 -54.25 28.140625 -54.78125 C 26.609375 -55.3125 24.867188 -55.578125 22.921875 -55.578125 Z M 22.921875 -37.078125 "/></g></g></g><g fill="#ffffff" fill-opacity="1"><g transform="translate(58.052566, 87.423942)"><g><path d="M 46.109375 -13.890625 L 43.8125 0 L 4.421875 0 L 4.421875 -64.875 L 41.5 -64.875 L 43.8125 -50.96875 L 22.921875 -50.96875 L 22.921875 -39.375 L 41.5 -39.375 L 41.5 -25.484375 L 22.921875 -25.484375 L 22.921875 -13.890625 Z M 46.109375 -13.890625 "/></g></g></g><g fill="#ffffff" fill-opacity="1"><g transform="translate(108.583064, 87.423942)"><g><path d="M 35.046875 -13.890625 C 35.046875 -15.304688 34.25 -16.601562 32.65625 -17.78125 C 31.0625 -18.96875 29.085938 -20.179688 26.734375 -21.421875 C 24.304688 -22.660156 21.707031 -24.015625 18.9375 -25.484375 C 16.101562 -26.960938 13.476562 -28.675781 11.0625 -30.625 C 8.644531 -32.507812 6.640625 -34.75 5.046875 -37.34375 C 3.453125 -39.882812 2.65625 -42.894531 2.65625 -46.375 C 2.65625 -48.082031 3.097656 -50.03125 3.984375 -52.21875 C 4.867188 -54.34375 6.253906 -56.347656 8.140625 -58.234375 C 10.023438 -60.117188 12.445312 -61.710938 15.40625 -63.015625 C 18.289062 -64.253906 21.769531 -64.875 25.84375 -64.875 C 31.269531 -64.875 36.195312 -63.835938 40.625 -61.765625 C 45.050781 -59.648438 49.382812 -56.050781 53.625 -50.96875 L 46.015625 -43.28125 C 45.191406 -44.519531 44.160156 -45.875 42.921875 -47.34375 C 41.679688 -48.757812 40.296875 -50.085938 38.765625 -51.328125 C 37.234375 -52.503906 35.582031 -53.507812 33.8125 -54.34375 C 31.976562 -55.164062 30.085938 -55.578125 28.140625 -55.578125 C 25.835938 -55.578125 24.097656 -55.101562 22.921875 -54.15625 C 21.742188 -53.21875 21.15625 -52.15625 21.15625 -50.96875 C 21.15625 -49.5625 21.953125 -48.265625 23.546875 -47.078125 C 25.140625 -45.898438 27.144531 -44.691406 29.5625 -43.453125 C 31.976562 -42.210938 34.601562 -40.851562 37.4375 -39.375 C 40.207031 -37.90625 42.800781 -36.226562 45.21875 -34.34375 C 47.644531 -32.394531 49.648438 -30.148438 51.234375 -27.609375 C 52.828125 -25.015625 53.625 -21.976562 53.625 -18.5 C 53.625 -16.789062 53.179688 -14.875 52.296875 -12.75 C 51.410156 -10.5625 50.023438 -8.523438 48.140625 -6.640625 C 46.253906 -4.753906 43.863281 -3.191406 40.96875 -1.953125 C 38.019531 -0.648438 34.507812 0 30.4375 0 C 27.726562 0 25.164062 -0.234375 22.75 -0.703125 C 20.269531 -1.179688 17.910156 -1.976562 15.671875 -3.09375 C 13.421875 -4.21875 11.234375 -5.664062 9.109375 -7.4375 C 6.929688 -9.144531 4.78125 -11.296875 2.65625 -13.890625 L 10.265625 -21.59375 C 11.085938 -20.351562 12.117188 -19.023438 13.359375 -17.609375 C 14.597656 -16.140625 15.984375 -14.8125 17.515625 -13.625 C 19.054688 -12.382812 20.738281 -11.351562 22.5625 -10.53125 C 24.332031 -9.707031 26.191406 -9.296875 28.140625 -9.296875 C 30.441406 -9.296875 32.179688 -9.765625 33.359375 -10.703125 C 34.484375 -11.648438 35.046875 -12.710938 35.046875 -13.890625 Z M 35.046875 -13.890625 "/></g></g></g><g fill="#ffffff" fill-opacity="1"><g transform="translate(164.865718, 87.423942)"><g><path d="M 46.109375 -13.890625 L 43.8125 0 L 4.421875 0 L 4.421875 -64.875 L 41.5 -64.875 L 43.8125 -50.96875 L 22.921875 -50.96875 L 22.921875 -39.375 L 41.5 -39.375 L 41.5 -25.484375 L 22.921875 -25.484375 L 22.921875 -13.890625 Z M 46.109375 -13.890625 "/></g></g></g><g fill="#ffffff" fill-opacity="1"><g transform="translate(215.396216, 87.423942)"><g><path d="M 33.546875 -18.5 L 20.96875 -18.5 L 15.671875 0 L 1.765625 0 L 20.265625 -64.875 L 38.84375 -64.875 L 57.34375 0 L 38.84375 0 Z M 30.890625 -27.78125 L 27.265625 -40.53125 L 23.625 -27.78125 Z M 30.890625 -27.78125 "/></g></g></g><g fill="#ffffff" fill-opacity="1"><g transform="translate(274.510718, 87.423942)"><g><path d="M 55.40625 0 L 36.8125 0 L 27.609375 -27.78125 L 22.921875 -27.78125 L 22.921875 0 L 4.421875 0 L 4.421875 -64.875 L 27.609375 -64.875 C 31.085938 -64.875 34.394531 -64.578125 37.53125 -63.984375 C 40.59375 -63.335938 43.273438 -62.304688 45.578125 -60.890625 C 47.878906 -59.410156 49.707031 -57.492188 51.0625 -55.140625 C 52.414062 -52.773438 53.09375 -49.851562 53.09375 -46.375 C 53.09375 -42.539062 52.296875 -39.414062 50.703125 -37 C 49.117188 -34.519531 46.96875 -32.570312 44.25 -31.15625 Z M 22.921875 -37.078125 C 24.867188 -37.078125 26.609375 -37.34375 28.140625 -37.875 C 29.617188 -38.40625 30.859375 -39.113281 31.859375 -40 C 32.804688 -40.820312 33.546875 -41.796875 34.078125 -42.921875 C 34.546875 -43.984375 34.78125 -45.101562 34.78125 -46.28125 C 34.78125 -47.46875 34.546875 -48.617188 34.078125 -49.734375 C 33.546875 -50.859375 32.804688 -51.863281 31.859375 -52.75 C 30.859375 -53.570312 29.617188 -54.25 28.140625 -54.78125 C 26.609375 -55.3125 24.867188 -55.578125 22.921875 -55.578125 Z M 22.921875 -37.078125 "/></g></g></g><g fill="#ffffff" fill-opacity="1"><g transform="translate(332.563247, 87.423942)"><g><path d="M 35.046875 -9.296875 C 36.753906 -9.296875 38.347656 -9.648438 39.828125 -10.359375 C 41.242188 -11.066406 42.453125 -11.863281 43.453125 -12.75 C 44.628906 -13.75 45.691406 -14.898438 46.640625 -16.203125 L 53.625 -9.296875 C 52.15625 -7.523438 50.414062 -5.960938 48.40625 -4.609375 C 46.695312 -3.421875 44.546875 -2.359375 41.953125 -1.421875 C 39.296875 -0.472656 36.226562 0 32.75 0 C 27.726562 0 23.332031 -0.941406 19.5625 -2.828125 C 15.78125 -4.660156 12.648438 -7.082031 10.171875 -10.09375 C 7.640625 -13.101562 5.753906 -16.550781 4.515625 -20.4375 C 3.273438 -24.28125 2.65625 -28.234375 2.65625 -32.296875 C 2.65625 -36.367188 3.304688 -40.351562 4.609375 -44.25 C 5.835938 -48.144531 7.722656 -51.625 10.265625 -54.6875 C 12.742188 -57.757812 15.867188 -60.238281 19.640625 -62.125 C 23.359375 -63.957031 27.726562 -64.875 32.75 -64.875 C 36.226562 -64.875 39.296875 -64.398438 41.953125 -63.453125 C 44.546875 -62.453125 46.695312 -61.363281 48.40625 -60.1875 C 50.414062 -58.820312 52.15625 -57.285156 53.625 -55.578125 L 46.640625 -48.671875 C 45.691406 -49.910156 44.628906 -51.0625 43.453125 -52.125 C 42.453125 -52.945312 41.242188 -53.742188 39.828125 -54.515625 C 38.347656 -55.222656 36.753906 -55.578125 35.046875 -55.578125 C 32.742188 -55.578125 30.738281 -54.925781 29.03125 -53.625 C 27.257812 -52.269531 25.8125 -50.503906 24.6875 -48.328125 C 23.507812 -46.140625 22.625 -43.6875 22.03125 -40.96875 C 21.445312 -38.195312 21.15625 -35.367188 21.15625 -32.484375 C 21.15625 -29.585938 21.445312 -26.753906 22.03125 -23.984375 C 22.625 -21.210938 23.507812 -18.734375 24.6875 -16.546875 C 25.8125 -14.367188 27.257812 -12.628906 29.03125 -11.328125 C 30.738281 -9.972656 32.742188 -9.296875 35.046875 -9.296875 Z M 35.046875 -9.296875 "/></g></g></g><g fill="#ffffff" fill-opacity="1"><g transform="translate(388.845902, 87.423942)"><g><path d="M 60 -64.875 L 60 0 L 41.5 0 L 41.5 -30.09375 L 22.921875 -30.09375 L 22.921875 0 L 4.421875 0 L 4.421875 -64.875 L 22.921875 -64.875 L 22.921875 -39.375 L 41.5 -39.375 L 41.5 -64.875 Z M 60 -64.875 "/></g></g></g><g fill="#ffffff" fill-opacity="1"><g transform="translate(453.270076, 87.423942)"><g/></g></g><g fill="#ffffff" fill-opacity="1"><g transform="translate(479.818484, 87.423942)"><g><path d="M 52.65625 -21.234375 C 50.53125 -17.753906 48.492188 -14.863281 46.546875 -12.5625 L 52.65625 0 L 39.03125 0 L 37 -4.078125 C 34.394531 -2.484375 31.972656 -1.421875 29.734375 -0.890625 C 27.429688 -0.296875 25.394531 0 23.625 0 C 20.5 0 17.640625 -0.5625 15.046875 -1.6875 C 12.453125 -2.800781 10.238281 -4.300781 8.40625 -6.1875 C 6.570312 -8.082031 5.15625 -10.269531 4.15625 -12.75 C 3.15625 -15.226562 2.65625 -17.820312 2.65625 -20.53125 C 2.65625 -22.539062 2.953125 -24.578125 3.546875 -26.640625 C 4.128906 -28.640625 5.070312 -30.613281 6.375 -32.5625 C 7.613281 -34.457031 9.207031 -36.257812 11.15625 -37.96875 C 13.101562 -39.675781 15.460938 -41.238281 18.234375 -42.65625 L 12.75 -53.984375 L 15.75 -64.875 L 39.5625 -64.875 L 43.8125 -55.578125 L 25.578125 -55.578125 L 39.90625 -26.109375 C 40.257812 -26.992188 40.585938 -27.9375 40.890625 -28.9375 C 41.179688 -29.9375 41.414062 -30.96875 41.59375 -32.03125 Z M 23.546875 -10.890625 C 24.785156 -10.890625 26.140625 -11.210938 27.609375 -11.859375 C 29.085938 -12.453125 30.535156 -13.335938 31.953125 -14.515625 L 21.5 -35.9375 C 18.195312 -34.164062 15.835938 -32.097656 14.421875 -29.734375 C 13.003906 -27.316406 12.296875 -24.957031 12.296875 -22.65625 C 12.296875 -21.125 12.59375 -19.648438 13.1875 -18.234375 C 13.71875 -16.816406 14.484375 -15.578125 15.484375 -14.515625 C 16.484375 -13.390625 17.664062 -12.503906 19.03125 -11.859375 C 20.382812 -11.210938 21.890625 -10.890625 23.546875 -10.890625 Z M 23.546875 -10.890625 "/></g></g></g><g fill="#ffffff" fill-opacity="1"><g transform="translate(535.127708, 87.423942)"><g/></g></g><g fill="#ffffff" fill-opacity="1"><g transform="translate(561.676148, 87.423942)"><g><path d="M 35.046875 -9.296875 C 36.753906 -9.296875 38.347656 -9.648438 39.828125 -10.359375 C 41.242188 -11.066406 42.453125 -11.863281 43.453125 -12.75 C 44.628906 -13.75 45.691406 -14.898438 46.640625 -16.203125 L 53.625 -9.296875 C 52.15625 -7.523438 50.414062 -5.960938 48.40625 -4.609375 C 46.695312 -3.421875 44.546875 -2.359375 41.953125 -1.421875 C 39.296875 -0.472656 36.226562 0 32.75 0 C 27.726562 0 23.332031 -0.941406 19.5625 -2.828125 C 15.78125 -4.660156 12.648438 -7.082031 10.171875 -10.09375 C 7.640625 -13.101562 5.753906 -16.550781 4.515625 -20.4375 C 3.273438 -24.28125 2.65625 -28.234375 2.65625 -32.296875 C 2.65625 -36.367188 3.304688 -40.351562 4.609375 -44.25 C 5.835938 -48.144531 7.722656 -51.625 10.265625 -54.6875 C 12.742188 -57.757812 15.867188 -60.238281 19.640625 -62.125 C 23.359375 -63.957031 27.726562 -64.875 32.75 -64.875 C 36.226562 -64.875 39.296875 -64.398438 41.953125 -63.453125 C 44.546875 -62.453125 46.695312 -61.363281 48.40625 -60.1875 C 50.414062 -58.820312 52.15625 -57.285156 53.625 -55.578125 L 46.640625 -48.671875 C 45.691406 -49.910156 44.628906 -51.0625 43.453125 -52.125 C 42.453125 -52.945312 41.242188 -53.742188 39.828125 -54.515625 C 38.347656 -55.222656 36.753906 -55.578125 35.046875 -55.578125 C 32.742188 -55.578125 30.738281 -54.925781 29.03125 -53.625 C 27.257812 -52.269531 25.8125 -50.503906 24.6875 -48.328125 C 23.507812 -46.140625 22.625 -43.6875 22.03125 -40.96875 C 21.445312 -38.195312 21.15625 -35.367188 21.15625 -32.484375 C 21.15625 -29.585938 21.445312 -26.753906 22.03125 -23.984375 C 22.625 -21.210938 23.507812 -18.734375 24.6875 -16.546875 C 25.8125 -14.367188 27.257812 -12.628906 29.03125 -11.328125 C 30.738281 -9.972656 32.742188 -9.296875 35.046875 -9.296875 Z M 35.046875 -9.296875 "/></g></g></g><g fill="#ffffff" fill-opacity="1"><g transform="translate(617.958803, 87.423942)"><g><path d="M 32.296875 -67 C 37.253906 -67 41.59375 -66.023438 45.3125 -64.078125 C 48.96875 -62.066406 52.035156 -59.441406 54.515625 -56.203125 C 56.992188 -52.953125 58.851562 -49.265625 60.09375 -45.140625 C 61.332031 -41.003906 61.953125 -36.785156 61.953125 -32.484375 C 61.953125 -28.117188 61.332031 -23.867188 60.09375 -19.734375 C 58.851562 -15.609375 56.992188 -11.921875 54.515625 -8.671875 C 52.035156 -5.429688 48.96875 -2.835938 45.3125 -0.890625 C 41.59375 1.117188 37.253906 2.125 32.296875 2.125 C 27.347656 2.125 23.039062 1.117188 19.375 -0.890625 C 15.664062 -2.835938 12.570312 -5.429688 10.09375 -8.671875 C 7.613281 -11.921875 5.753906 -15.609375 4.515625 -19.734375 C 3.273438 -23.867188 2.65625 -28.117188 2.65625 -32.484375 C 2.65625 -36.785156 3.273438 -41.003906 4.515625 -45.140625 C 5.753906 -49.265625 7.613281 -52.953125 10.09375 -56.203125 C 12.570312 -59.441406 15.664062 -62.066406 19.375 -64.078125 C 23.039062 -66.023438 27.347656 -67 32.296875 -67 Z M 32.296875 -7.78125 C 33.535156 -7.78125 34.75 -8.253906 35.9375 -9.203125 C 37.113281 -10.148438 38.171875 -11.625 39.109375 -13.625 C 40.054688 -15.632812 40.828125 -18.203125 41.421875 -21.328125 C 41.953125 -24.398438 42.21875 -28.117188 42.21875 -32.484375 C 42.21875 -36.785156 41.953125 -40.5 41.421875 -43.625 C 40.828125 -46.757812 40.054688 -49.328125 39.109375 -51.328125 C 38.171875 -53.335938 37.113281 -54.8125 35.9375 -55.75 C 34.75 -56.695312 33.535156 -57.171875 32.296875 -57.171875 C 31.054688 -57.171875 29.847656 -56.695312 28.671875 -55.75 C 27.492188 -54.8125 26.429688 -53.335938 25.484375 -51.328125 C 24.546875 -49.328125 23.8125 -46.757812 23.28125 -43.625 C 22.6875 -40.5 22.390625 -36.785156 22.390625 -32.484375 C 22.390625 -28.117188 22.6875 -24.398438 23.28125 -21.328125 C 23.8125 -18.203125 24.546875 -15.632812 25.484375 -13.625 C 26.429688 -11.625 27.492188 -10.148438 28.671875 -9.203125 C 29.847656 -8.253906 31.054688 -7.78125 32.296875 -7.78125 Z M 32.296875 -7.78125 "/></g></g></g><g fill="#ffffff" fill-opacity="1"><g transform="translate(682.559933, 87.423942)"><g><path d="M 4.421875 -64.875 L 25.3125 -64.875 L 46.109375 -25.9375 L 46.109375 -64.875 L 60 -64.875 L 60 0 L 39.203125 0 L 18.3125 -38.9375 L 18.3125 0 L 4.421875 0 Z M 4.421875 -64.875 "/></g></g></g><g fill="#ffffff" fill-opacity="1"><g transform="translate(746.984138, 87.423942)"><g><path d="M 35.046875 -13.890625 C 35.046875 -15.304688 34.25 -16.601562 32.65625 -17.78125 C 31.0625 -18.96875 29.085938 -20.179688 26.734375 -21.421875 C 24.304688 -22.660156 21.707031 -24.015625 18.9375 -25.484375 C 16.101562 -26.960938 13.476562 -28.675781 11.0625 -30.625 C 8.644531 -32.507812 6.640625 -34.75 5.046875 -37.34375 C 3.453125 -39.882812 2.65625 -42.894531 2.65625 -46.375 C 2.65625 -48.082031 3.097656 -50.03125 3.984375 -52.21875 C 4.867188 -54.34375 6.253906 -56.347656 8.140625 -58.234375 C 10.023438 -60.117188 12.445312 -61.710938 15.40625 -63.015625 C 18.289062 -64.253906 21.769531 -64.875 25.84375 -64.875 C 31.269531 -64.875 36.195312 -63.835938 40.625 -61.765625 C 45.050781 -59.648438 49.382812 -56.050781 53.625 -50.96875 L 46.015625 -43.28125 C 45.191406 -44.519531 44.160156 -45.875 42.921875 -47.34375 C 41.679688 -48.757812 40.296875 -50.085938 38.765625 -51.328125 C 37.234375 -52.503906 35.582031 -53.507812 33.8125 -54.34375 C 31.976562 -55.164062 30.085938 -55.578125 28.140625 -55.578125 C 25.835938 -55.578125 24.097656 -55.101562 22.921875 -54.15625 C 21.742188 -53.21875 21.15625 -52.15625 21.15625 -50.96875 C 21.15625 -49.5625 21.953125 -48.265625 23.546875 -47.078125 C 25.140625 -45.898438 27.144531 -44.691406 29.5625 -43.453125 C 31.976562 -42.210938 34.601562 -40.851562 37.4375 -39.375 C 40.207031 -37.90625 42.800781 -36.226562 45.21875 -34.34375 C 47.644531 -32.394531 49.648438 -30.148438 51.234375 -27.609375 C 52.828125 -25.015625 53.625 -21.976562 53.625 -18.5 C 53.625 -16.789062 53.179688 -14.875 52.296875 -12.75 C 51.410156 -10.5625 50.023438 -8.523438 48.140625 -6.640625 C 46.253906 -4.753906 43.863281 -3.191406 40.96875 -1.953125 C 38.019531 -0.648438 34.507812 0 30.4375 0 C 27.726562 0 25.164062 -0.234375 22.75 -0.703125 C 20.269531 -1.179688 17.910156 -1.976562 15.671875 -3.09375 C 13.421875 -4.21875 11.234375 -5.664062 9.109375 -7.4375 C 6.929688 -9.144531 4.78125 -11.296875 2.65625 -13.890625 L 10.265625 -21.59375 C 11.085938 -20.351562 12.117188 -19.023438 13.359375 -17.609375 C 14.597656 -16.140625 15.984375 -14.8125 17.515625 -13.625 C 19.054688 -12.382812 20.738281 -11.351562 22.5625 -10.53125 C 24.332031 -9.707031 26.191406 -9.296875 28.140625 -9.296875 C 30.441406 -9.296875 32.179688 -9.765625 33.359375 -10.703125 C 34.484375 -11.648438 35.046875 -12.710938 35.046875 -13.890625 Z M 35.046875 -13.890625 "/></g></g></g><g fill="#ffffff" fill-opacity="1"><g transform="translate(803.266793, 87.423942)"><g><path d="M 58.234375 -64.875 L 58.234375 -32.390625 C 58.234375 -28.316406 57.757812 -24.363281 56.8125 -20.53125 C 55.875 -16.632812 54.34375 -13.179688 52.21875 -10.171875 C 50.03125 -7.109375 47.164062 -4.660156 43.625 -2.828125 C 40.03125 -0.941406 35.632812 0 30.4375 0 C 25.25 0 20.882812 -0.941406 17.34375 -2.828125 C 13.800781 -4.660156 10.941406 -7.109375 8.765625 -10.171875 C 6.578125 -13.179688 5.015625 -16.632812 4.078125 -20.53125 C 3.128906 -24.363281 2.65625 -28.316406 2.65625 -32.390625 L 2.65625 -64.875 L 21.15625 -64.875 L 21.15625 -32.390625 C 21.15625 -28.316406 21.332031 -24.835938 21.6875 -21.953125 C 21.976562 -19.054688 22.507812 -16.664062 23.28125 -14.78125 C 23.988281 -12.894531 24.929688 -11.507812 26.109375 -10.625 C 27.285156 -9.738281 28.726562 -9.296875 30.4375 -9.296875 C 33.925781 -9.296875 36.347656 -11.125 37.703125 -14.78125 C 39.054688 -18.4375 39.734375 -24.304688 39.734375 -32.390625 L 39.734375 -64.875 Z M 58.234375 -64.875 "/></g></g></g><g fill="#ffffff" fill-opacity="1"><g transform="translate(864.151186, 87.423942)"><g><path d="M 43.8125 0 L 4.421875 0 L 4.421875 -64.875 L 22.921875 -64.875 L 22.921875 -13.890625 L 41.5 -13.890625 Z M 43.8125 0 "/></g></g></g><g fill="#ffffff" fill-opacity="1"><g transform="translate(909.725971, 87.423942)"><g><path d="M 36.546875 -50.96875 L 36.546875 0 L 17.96875 0 L 17.96875 -50.96875 L 1.765625 -50.96875 L 4.078125 -64.875 L 50.4375 -64.875 L 52.75 -50.96875 Z M 36.546875 -50.96875 "/></g></g></g><g fill="#ffffff" fill-opacity="1"><g transform="translate(958.043935, 87.423942)"><g><path d="M 33.546875 -18.5 L 20.96875 -18.5 L 15.671875 0 L 1.765625 0 L 20.265625 -64.875 L 38.84375 -64.875 L 57.34375 0 L 38.84375 0 Z M 30.890625 -27.78125 L 27.265625 -40.53125 L 23.625 -27.78125 Z M 30.890625 -27.78125 "/></g></g></g><g fill="#ffffff" fill-opacity="1"><g transform="translate(1017.15839, 87.423942)"><g><path d="M 4.421875 -64.875 L 25.3125 -64.875 L 46.109375 -25.9375 L 46.109375 -64.875 L 60 -64.875 L 60 0 L 39.203125 0 L 18.3125 -38.9375 L 18.3125 0 L 4.421875 0 Z M 4.421875 -64.875 "/></g></g></g><g fill="#ffffff" fill-opacity="1"><g transform="translate(1081.582595, 87.423942)"><g><path d="M 35.046875 -9.296875 C 36.753906 -9.296875 38.347656 -9.648438 39.828125 -10.359375 C 41.242188 -11.066406 42.453125 -11.863281 43.453125 -12.75 C 44.628906 -13.75 45.691406 -14.898438 46.640625 -16.203125 L 53.625 -9.296875 C 52.15625 -7.523438 50.414062 -5.960938 48.40625 -4.609375 C 46.695312 -3.421875 44.546875 -2.359375 41.953125 -1.421875 C 39.296875 -0.472656 36.226562 0 32.75 0 C 27.726562 0 23.332031 -0.941406 19.5625 -2.828125 C 15.78125 -4.660156 12.648438 -7.082031 10.171875 -10.09375 C 7.640625 -13.101562 5.753906 -16.550781 4.515625 -20.4375 C 3.273438 -24.28125 2.65625 -28.234375 2.65625 -32.296875 C 2.65625 -36.367188 3.304688 -40.351562 4.609375 -44.25 C 5.835938 -48.144531 7.722656 -51.625 10.265625 -54.6875 C 12.742188 -57.757812 15.867188 -60.238281 19.640625 -62.125 C 23.359375 -63.957031 27.726562 -64.875 32.75 -64.875 C 36.226562 -64.875 39.296875 -64.398438 41.953125 -63.453125 C 44.546875 -62.453125 46.695312 -61.363281 48.40625 -60.1875 C 50.414062 -58.820312 52.15625 -57.285156 53.625 -55.578125 L 46.640625 -48.671875 C 45.691406 -49.910156 44.628906 -51.0625 43.453125 -52.125 C 42.453125 -52.945312 41.242188 -53.742188 39.828125 -54.515625 C 38.347656 -55.222656 36.753906 -55.578125 35.046875 -55.578125 C 32.742188 -55.578125 30.738281 -54.925781 29.03125 -53.625 C 27.257812 -52.269531 25.8125 -50.503906 24.6875 -48.328125 C 23.507812 -46.140625 22.625 -43.6875 22.03125 -40.96875 C 21.445312 -38.195312 21.15625 -35.367188 21.15625 -32.484375 C 21.15625 -29.585938 21.445312 -26.753906 22.03125 -23.984375 C 22.625 -21.210938 23.507812 -18.734375 24.6875 -16.546875 C 25.8125 -14.367188 27.257812 -12.628906 29.03125 -11.328125 C 30.738281 -9.972656 32.742188 -9.296875 35.046875 -9.296875 Z M 35.046875 -9.296875 "/></g></g></g><g fill="#ffffff" fill-opacity="1"><g transform="translate(1137.86525, 87.423942)"><g><path d="M 58.234375 -64.875 L 39.734375 -21.421875 L 39.734375 0 L 21.15625 0 L 21.15625 -21.421875 L 2.65625 -64.875 L 23.546875 -64.875 C 23.597656 -64.75 23.597656 -64.75 23.546875 -64.875 C 23.484375 -64.925781 23.507812 -64.863281 23.625 -64.6875 C 23.6875 -64.507812 23.863281 -64.066406 24.15625 -63.359375 C 24.457031 -62.597656 24.988281 -61.332031 25.75 -59.5625 C 26.519531 -57.789062 27.550781 -55.367188 28.84375 -52.296875 C 30.144531 -49.234375 31.828125 -45.28125 33.890625 -40.4375 C 35.960938 -45.28125 37.675781 -49.234375 39.03125 -52.296875 C 40.320312 -55.367188 41.351562 -57.789062 42.125 -59.5625 C 42.832031 -61.332031 43.363281 -62.597656 43.71875 -63.359375 C 44.007812 -64.066406 44.21875 -64.507812 44.34375 -64.6875 C 44.394531 -64.863281 44.394531 -64.925781 44.34375 -64.875 C 44.28125 -64.75 44.28125 -64.75 44.34375 -64.875 Z M 58.234375 -64.875 "/></g></g></g></g></g></svg>